  0
SECTION
  2
HEADER
  9
$ACADVER
  1
AC1014
  9
$HANDSEED
  5
FFFF
  9
$INSUNITS
 70
     4
  9
$MEASUREMENT
 70
     1
  0
ENDSEC
  0
SECTION
  2
TABLES
  0
TABLE
  2
VPORT
  5
8
330
0
100
AcDbSymbolTable
 70
     4
  0
VPORT
  5
2E
330
8
100
AcDbSymbolTableRecord
100
AcDbViewportTableRecord
  2
*ACTIVE
 70
     0
 10
0.0
 20
0.0
 11
1.0
 21
1.0
 12
210.0
 22
148.5
 13
0.0
 23
0.0
 14
10.0
 24
10.0
 15
10.0
 25
10.0
 16
0.0
 26
0.0
 36
1.0
 17
0.0
 27
0.0
 37
0.0
 40
341.0
 41
1.24
 42
50.0
 43
0.0
 44
0.0
 50
0.0
 51
0.0
 71
     0
 72
   100
 73
     1
 74
     3
 75
     0
 76
     0
 77
     0
 78
     0
  0
ENDTAB
  0
TABLE
  2
LTYPE
  5
5
330
0
100
AcDbSymbolTable
 70
     1
  0
LTYPE
  5
14
330
5
100
AcDbSymbolTableRecord
100
AcDbLinetypeTableRecord
  2
BYBLOCK
 70
     0
  3

 72
    65
 73
     0
 40
0.0
  0
LTYPE
  5
15
330
5
100
AcDbSymbolTableRecord
100
AcDbLinetypeTableRecord
  2
BYLAYER
 70
     0
  3

 72
    65
 73
     0
 40
0.0
  0
LTYPE
  5
16
330
5
100
AcDbSymbolTableRecord
100
AcDbLinetypeTableRecord
  2
CONTINUOUS
 70
     0
  3
Solid line
 72
    65
 73
     0
 40
0.0
  0
ENDTAB
  0
TABLE
  2
LAYER
  5
2
100
AcDbSymbolTable
 70
2
  0
LAYER
  5
50
100
AcDbSymbolTableRecord
100
AcDbLayerTableRecord
  2
0
 70
0
  6
CONTINUOUS
  0
LAYER
  5
51
100
AcDbSymbolTableRecord
100
AcDbLayerTableRecord
  2
Layer_1
 70
0
  6
CONTINUOUS
  0
ENDTAB
  0
TABLE
  2
STYLE
  5
3
330
0
100
AcDbSymbolTable
 70
     1
  0
STYLE
  5
11
330
3
100
AcDbSymbolTableRecord
100
AcDbTextStyleTableRecord
  2
STANDARD
 70
     0
 40
0.0
 41
1.0
 50
0.0
 71
     0
 42
2.5
  3
txt
  4

  0
ENDTAB
  0
TABLE
  2
VIEW
  5
6
330
0
100
AcDbSymbolTable
 70
     0
  0
ENDTAB
  0
TABLE
  2
UCS
  5
7
330
0
100
AcDbSymbolTable
 70
     0
  0
ENDTAB
  0
TABLE
  2
APPID
  5
9
330
0
100
AcDbSymbolTable
 70
     2
  0
APPID
  5
12
330
9
100
AcDbSymbolTableRecord
100
AcDbRegAppTableRecord
  2
ACAD
 70
     0
  0
ENDTAB
  0
TABLE
  2
DIMSTYLE
  5
A
330
0
100
AcDbSymbolTable
 70
     1
  0
DIMSTYLE
105
27
330
A
100
AcDbSymbolTableRecord
100
AcDbDimStyleTableRecord
  2
ISO-25
 70
     0
  3

  4

  5

  6

  7

 40
1.0
 41
2.5
 42
0.625
 43
3.75
 44
1.25
 45
0.0
 46
0.0
 47
0.0
 48
0.0
140
2.5
141
2.5
142
0.0
143
0.03937007874016
144
1.0
145
0.0
146
1.0
147
0.625
 71
     0
 72
     0
 73
     0
 74
     0
 75
     0
 76
     0
 77
     1
 78
     8
170
     0
171
     3
172
     1
173
     0
174
     0
175
     0
176
     0
177
     0
178
     0
270
     2
271
     2
272
     2
273
     2
274
     3
340
11
275
     0
280
     0
281
     0
282
     0
283
     0
284
     8
285
     0
286
     0
287
     3
288
     0
  0
ENDTAB
  0
TABLE
  2
BLOCK_RECORD
  5
1
330
0
100
AcDbSymbolTable
 70
     1
  0
BLOCK_RECORD
  5
1F
330
1
100
AcDbSymbolTableRecord
100
AcDbBlockTableRecord
  2
*MODEL_SPACE
  0
BLOCK_RECORD
  5
1B
330
1
100
AcDbSymbolTableRecord
100
AcDbBlockTableRecord
  2
*PAPER_SPACE
  0
ENDTAB
  0
ENDSEC
  0
SECTION
  2
BLOCKS
  0
BLOCK
  5
20
330
1F
100
AcDbEntity
  8
0
100
AcDbBlockBegin
  2
*MODEL_SPACE
 70
     0
 10
0.0
 20
0.0
 30
0.0
  3
*MODEL_SPACE
  1

  0
ENDBLK
  5
21
330
1F
100
AcDbEntity
  8
0
100
AcDbBlockEnd
  0
BLOCK
  5
1C
330
1B
100
AcDbEntity
 67
     1
  8
0
100
AcDbBlockBegin
  2
*PAPER_SPACE
  1

  0
ENDBLK
  5
1D
330
1B
100
AcDbEntity
 67
     1
  8
0
100
AcDbBlockEnd
  0
ENDSEC
  0
SECTION
  2
ENTITIES
  0
SPLINE
  5
100
100
AcDbEntity
  8
Layer_1
 62
5
100
AcDbSpline
 70
8
 71
3
 72
8
 73
4
 74
0
 40
0
 40
0
 40
0
 40
0
 40
1
 40
1
 40
1
 40
1
 10
21.822738
 20
213.424727
 30
0.0
 10
20.160741
 20
213.424727
 30
0.0
 10
18.822921
 20
212.086917
 30
0.0
 10
18.822921
 20
210.424917
 30
0.0
  0
SPLINE
  5
101
100
AcDbEntity
  8
Layer_1
 62
5
100
AcDbSpline
 70
8
 71
3
 72
8
 73
4
 74
0
 40
0
 40
0
 40
0
 40
0
 40
1
 40
1
 40
1
 40
1
 10
18.822921
 20
198.198787
 30
0.0
 10
18.822921
 20
196.536790
 30
0.0
 10
20.160741
 20
195.198970
 30
0.0
 10
21.822738
 20
195.198970
 30
0.0
  0
LWPOLYLINE
  5
102
100
AcDbEntity
  8
Layer_1
 62
5
100
AcDbPolyline
 90
2
 70
0
 10
18.822921
 20
210.424917
 30
0.0
 10
18.822921
 20
198.198787
 30
0.0
  0
SPLINE
  5
103
100
AcDbEntity
  8
Layer_1
 62
5
100
AcDbSpline
 70
8
 71
3
 72
8
 73
4
 74
0
 40
0
 40
0
 40
0
 40
0
 40
1
 40
1
 40
1
 40
1
 10
22.322966
 20
195.198970
 30
0.0
 10
22.322908
 20
195.928391
 30
0.0
 10
22.612644
 20
196.627953
 30
0.0
 10
23.128423
 20
197.143731
 30
0.0
  0
SPLINE
  5
104
100
AcDbEntity
  8
Layer_1
 62
5
100
AcDbSpline
 70
8
 71
3
 72
8
 73
4
 74
0
 40
0
 40
0
 40
0
 40
0
 40
1
 40
1
 40
1
 40
1
 10
23.128423
 20
197.143731
 30
0.0
 10
23.644202
 20
197.659510
 30
0.0
 10
24.343764
 20
197.949245
 30
0.0
 10
25.073185
 20
197.949187
 30
0.0
  0
SPLINE
  5
105
100
AcDbEntity
  8
Layer_1
 62
5
100
AcDbSpline
 70
8
 71
3
 72
8
 73
4
 74
0
 40
0
 40
0
 40
0
 40
0
 40
1
 40
1
 40
1
 40
1
 10
25.073185
 20
197.949187
 30
0.0
 10
26.591937
 20
197.949023
 30
0.0
 10
27.823008
 20
196.717722
 30
0.0
 10
27.822888
 20
195.198970
 30
0.0
  0
LWPOLYLINE
  5
106
100
AcDbEntity
  8
Layer_1
 62
5
100
AcDbPolyline
 90
2
 70
0
 10
21.822738
 20
195.198970
 30
0.0
 10
22.322966
 20
195.198970
 30
0.0
  0
SPLINE
  5
107
100
AcDbEntity
  8
Layer_1
 62
5
100
AcDbSpline
 70
8
 71
3
 72
8
 73
4
 74
0
 40
0
 40
0
 40
0
 40
0
 40
1
 40
1
 40
1
 40
1
 10
149.823200
 20
195.198970
 30
0.0
 10
149.823080
 20
196.717725
 30
0.0
 10
151.054155
 20
197.949027
 30
0.0
 10
152.572910
 20
197.949187
 30
0.0
  0
SPLINE
  5
108
100
AcDbEntity
  8
Layer_1
 62
5
100
AcDbSpline
 70
8
 71
3
 72
8
 73
4
 74
0
 40
0
 40
0
 40
0
 40
0
 40
1
 40
1
 40
1
 40
1
 10
152.572910
 20
197.949187
 30
0.0
 10
153.302331
 20
197.949245
 30
0.0
 10
154.001894
 20
197.659510
 30
0.0
 10
154.517673
 20
197.143732
 30
0.0
  0
SPLINE
  5
109
100
AcDbEntity
  8
Layer_1
 62
5
100
AcDbSpline
 70
8
 71
3
 72
8
 73
4
 74
0
 40
0
 40
0
 40
0
 40
0
 40
1
 40
1
 40
1
 40
1
 10
154.517673
 20
197.143732
 30
0.0
 10
155.033451
 20
196.627953
 30
0.0
 10
155.323188
 20
195.928391
 30
0.0
 10
155.323130
 20
195.198970
 30
0.0
  0
LWPOLYLINE
  5
10a
100
AcDbEntity
  8
Layer_1
 62
5
100
AcDbPolyline
 90
6
 70
0
 10
27.822888
 20
195.198970
 30
0.0
 10
37.328251
 20
195.198970
 30
0.0
 10
41.322839
 20
199.193557
 30
0.0
 10
136.322740
 20
199.193557
 30
0.0
 10
140.317320
 20
195.198970
 30
0.0
 10
149.823200
 20
195.198970
 30
0.0
  0
SPLINE
  5
10b
100
AcDbEntity
  8
Layer_1
 62
5
100
AcDbSpline
 70
8
 71
3
 72
8
 73
4
 74
0
 40
0
 40
0
 40
0
 40
0
 40
1
 40
1
 40
1
 40
1
 10
155.822840
 20
195.198970
 30
0.0
 10
157.484840
 20
195.198970
 30
0.0
 10
158.822660
 20
196.536790
 30
0.0
 10
158.822660
 20
198.198787
 30
0.0
  0
LWPOLYLINE
  5
10c
100
AcDbEntity
  8
Layer_1
 62
5
100
AcDbPolyline
 90
2
 70
0
 10
155.323130
 20
195.198970
 30
0.0
 10
155.822840
 20
195.198970
 30
0.0
  0
SPLINE
  5
10d
100
AcDbEntity
  8
Layer_1
 62
5
100
AcDbSpline
 70
8
 71
3
 72
8
 73
4
 74
0
 40
0
 40
0
 40
0
 40
0
 40
1
 40
1
 40
1
 40
1
 10
158.822660
 20
210.424917
 30
0.0
 10
158.822660
 20
212.086917
 30
0.0
 10
157.484840
 20
213.424727
 30
0.0
 10
155.822840
 20
213.424727
 30
0.0
  0
LWPOLYLINE
  5
10e
100
AcDbEntity
  8
Layer_1
 62
5
100
AcDbPolyline
 90
2
 70
0
 10
158.822660
 20
198.198787
 30
0.0
 10
158.822660
 20
210.424917
 30
0.0
  0
SPLINE
  5
10f
100
AcDbEntity
  8
Layer_1
 62
5
100
AcDbSpline
 70
8
 71
3
 72
8
 73
4
 74
0
 40
0
 40
0
 40
0
 40
0
 40
1
 40
1
 40
1
 40
1
 10
22.309273
 20
191.450607
 30
0.0
 10
20.647278
 20
191.450607
 30
0.0
 10
19.309456
 20
190.112790
 30
0.0
 10
19.309456
 20
188.450790
 30
0.0
  0
LWPOLYLINE
  5
110
100
AcDbEntity
  8
Layer_1
 62
5
100
AcDbPolyline
 90
2
 70
0
 10
155.822840
 20
213.424727
 30
0.0
 10
21.822738
 20
213.424727
 30
0.0
  0
SPLINE
  5
111
100
AcDbEntity
  8
Layer_1
 62
5
100
AcDbSpline
 70
8
 71
3
 72
8
 73
4
 74
0
 40
0
 40
0
 40
0
 40
0
 40
1
 40
1
 40
1
 40
1
 10
19.309456
 20
169.974920
 30
0.0
 10
19.309456
 20
168.312930
 30
0.0
 10
20.647279
 20
166.975110
 30
0.0
 10
22.309273
 20
166.975110
 30
0.0
  0
LWPOLYLINE
  5
112
100
AcDbEntity
  8
Layer_1
 62
5
100
AcDbPolyline
 90
4
 70
0
 10
19.309456
 20
188.450790
 30
0.0
 10
19.309456
 20
182.201040
 30
0.0
 10
19.309456
 20
181.950410
 30
0.0
 10
19.309456
 20
169.974920
 30
0.0
  0
SPLINE
  5
113
100
AcDbEntity
  8
Layer_1
 62
5
100
AcDbSpline
 70
8
 71
3
 72
8
 73
4
 74
0
 40
0
 40
0
 40
0
 40
0
 40
1
 40
1
 40
1
 40
1
 10
22.809500
 20
166.975110
 30
0.0
 10
22.809384
 20
168.494060
 30
0.0
 10
24.040769
 20
169.725440
 30
0.0
 10
25.559720
 20
169.725320
 30
0.0
  0
SPLINE
  5
114
100
AcDbEntity
  8
Layer_1
 62
5
100
AcDbSpline
 70
8
 71
3
 72
8
 73
4
 74
0
 40
0
 40
0
 40
0
 40
0
 40
1
 40
1
 40
1
 40
1
 10
25.559720
 20
169.725320
 30
0.0
 10
27.078469
 20
169.725160
 30
0.0
 10
28.309539
 20
168.493860
 30
0.0
 10
28.309423
 20
166.975110
 30
0.0
  0
LWPOLYLINE
  5
115
100
AcDbEntity
  8
Layer_1
 62
5
100
AcDbPolyline
 90
2
 70
0
 10
22.309273
 20
166.975110
 30
0.0
 10
22.809500
 20
166.975110
 30
0.0
  0
SPLINE
  5
116
100
AcDbEntity
  8
Layer_1
 62
5
100
AcDbSpline
 70
8
 71
3
 72
8
 73
4
 74
0
 40
0
 40
0
 40
0
 40
0
 40
1
 40
1
 40
1
 40
1
 10
150.309736
 20
166.975110
 30
0.0
 10
150.309616
 20
168.493860
 30
0.0
 10
151.540686
 20
169.725150
 30
0.0
 10
153.059436
 20
169.725320
 30
0.0
  0
SPLINE
  5
117
100
AcDbEntity
  8
Layer_1
 62
5
100
AcDbSpline
 70
8
 71
3
 72
8
 73
4
 74
0
 40
0
 40
0
 40
0
 40
0
 40
1
 40
1
 40
1
 40
1
 10
153.059436
 20
169.725320
 30
0.0
 10
154.578386
 20
169.725440
 30
0.0
 10
155.809776
 20
168.494060
 30
0.0
 10
155.809656
 20
166.975110
 30
0.0
  0
LWPOLYLINE
  5
118
100
AcDbEntity
  8
Layer_1
 62
5
100
AcDbPolyline
 90
6
 70
0
 10
28.309423
 20
166.975110
 30
0.0
 10
37.814786
 20
166.975110
 30
0.0
 10
41.809374
 20
170.969690
 30
0.0
 10
136.809266
 20
170.969690
 30
0.0
 10
140.803856
 20
166.975110
 30
0.0
 10
150.309736
 20
166.975110
 30
0.0
  0
SPLINE
  5
119
100
AcDbEntity
  8
Layer_1
 62
5
100
AcDbSpline
 70
8
 71
3
 72
8
 73
4
 74
0
 40
0
 40
0
 40
0
 40
0
 40
1
 40
1
 40
1
 40
1
 10
156.309366
 20
166.975110
 30
0.0
 10
157.971366
 20
166.975110
 30
0.0
 10
159.309186
 20
168.312930
 30
0.0
 10
159.309186
 20
169.974920
 30
0.0
  0
LWPOLYLINE
  5
11a
100
AcDbEntity
  8
Layer_1
 62
5
100
AcDbPolyline
 90
2
 70
0
 10
155.809656
 20
166.975110
 30
0.0
 10
156.309366
 20
166.975110
 30
0.0
  0
SPLINE
  5
11b
100
AcDbEntity
  8
Layer_1
 62
5
100
AcDbSpline
 70
8
 71
3
 72
8
 73
4
 74
0
 40
0
 40
0
 40
0
 40
0
 40
1
 40
1
 40
1
 40
1
 10
159.309186
 20
188.450790
 30
0.0
 10
159.309186
 20
190.112790
 30
0.0
 10
157.971366
 20
191.450607
 30
0.0
 10
156.309366
 20
191.450607
 30
0.0
  0
LWPOLYLINE
  5
11c
100
AcDbEntity
  8
Layer_1
 62
5
100
AcDbPolyline
 90
4
 70
0
 10
159.309186
 20
169.974920
 30
0.0
 10
159.309186
 20
181.950410
 30
0.0
 10
159.309186
 20
182.201040
 30
0.0
 10
159.309186
 20
188.450790
 30
0.0
  0
SPLINE
  5
11d
100
AcDbEntity
  8
Layer_1
 62
5
100
AcDbSpline
 70
8
 71
3
 72
8
 73
4
 74
0
 40
0
 40
0
 40
0
 40
0
 40
1
 40
1
 40
1
 40
1
 10
25.559720
 20
174.725020
 30
0.0
 10
26.388077
 20
174.724830
 30
0.0
 10
27.059464
 20
174.053210
 30
0.0
 10
27.059370
 20
173.224850
 30
0.0
  0
SPLINE
  5
11e
100
AcDbEntity
  8
Layer_1
 62
5
100
AcDbSpline
 70
8
 71
3
 72
8
 73
4
 74
0
 40
0
 40
0
 40
0
 40
0
 40
1
 40
1
 40
1
 40
1
 10
27.059370
 20
173.224850
 30
0.0
 10
27.059177
 20
172.396700
 30
0.0
 10
26.387874
 20
171.725390
 30
0.0
 10
25.559720
 20
171.725200
 30
0.0
  0
SPLINE
  5
11f
100
AcDbEntity
  8
Layer_1
 62
5
100
AcDbSpline
 70
8
 71
3
 72
8
 73
4
 74
0
 40
0
 40
0
 40
0
 40
0
 40
1
 40
1
 40
1
 40
1
 10
25.559720
 20
171.725200
 30
0.0
 10
24.731364
 20
171.725110
 30
0.0
 10
24.059746
 20
172.396490
 30
0.0
 10
24.059553
 20
173.224850
 30
0.0
  0
SPLINE
  5
120
100
AcDbEntity
  8
Layer_1
 62
5
100
AcDbSpline
 70
8
 71
3
 72
8
 73
4
 74
0
 40
0
 40
0
 40
0
 40
0
 40
1
 40
1
 40
1
 40
1
 10
24.059553
 20
173.224850
 30
0.0
 10
24.059459
 20
174.053410
 30
0.0
 10
24.731161
 20
174.725110
 30
0.0
 10
25.559720
 20
174.725020
 30
0.0
  0
LWPOLYLINE
  5
121
100
AcDbEntity
  8
Layer_1
 62
5
100
AcDbPolyline
 90
2
 70
0
 10
156.309366
 20
191.450607
 30
0.0
 10
22.309273
 20
191.450607
 30
0.0
  0
SPLINE
  5
122
100
AcDbEntity
  8
Layer_1
 62
5
100
AcDbSpline
 70
8
 71
3
 72
8
 73
4
 74
0
 40
0
 40
0
 40
0
 40
0
 40
1
 40
1
 40
1
 40
1
 10
153.059436
 20
174.725020
 30
0.0
 10
153.887996
 20
174.725110
 30
0.0
 10
154.559696
 20
174.053410
 30
0.0
 10
154.559606
 20
173.224850
 30
0.0
  0
SPLINE
  5
123
100
AcDbEntity
  8
Layer_1
 62
5
100
AcDbSpline
 70
8
 71
3
 72
8
 73
4
 74
0
 40
0
 40
0
 40
0
 40
0
 40
1
 40
1
 40
1
 40
1
 10
154.559606
 20
173.224850
 30
0.0
 10
154.559416
 20
172.396490
 30
0.0
 10
153.887796
 20
171.725110
 30
0.0
 10
153.059436
 20
171.725200
 30
0.0
  0
SPLINE
  5
124
100
AcDbEntity
  8
Layer_1
 62
5
100
AcDbSpline
 70
8
 71
3
 72
8
 73
4
 74
0
 40
0
 40
0
 40
0
 40
0
 40
1
 40
1
 40
1
 40
1
 10
153.059436
 20
171.725200
 30
0.0
 10
152.231086
 20
171.725110
 30
0.0
 10
151.559466
 20
172.396500
 30
0.0
 10
151.559276
 20
173.224850
 30
0.0
  0
SPLINE
  5
125
100
AcDbEntity
  8
Layer_1
 62
5
100
AcDbSpline
 70
8
 71
3
 72
8
 73
4
 74
0
 40
0
 40
0
 40
0
 40
0
 40
1
 40
1
 40
1
 40
1
 10
151.559276
 20
173.224850
 30
0.0
 10
151.559186
 20
174.053410
 30
0.0
 10
152.230876
 20
174.725110
 30
0.0
 10
153.059436
 20
174.725020
 30
0.0
  0
LWPOLYLINE
  5
126
100
AcDbEntity
  8
Layer_1
 62
5
100
AcDbPolyline
 90
1
 70
1
 10
25.559720
 20
174.725020
 30
0.0
  0
SPLINE
  5
127
100
AcDbEntity
  8
Layer_1
 62
5
100
AcDbSpline
 70
8
 71
3
 72
8
 73
4
 74
0
 40
0
 40
0
 40
0
 40
0
 40
1
 40
1
 40
1
 40
1
 10
21.822957
 20
243.861632
 30
0.0
 10
20.182630
 20
243.861632
 30
0.0
 10
18.862415
 20
242.540905
 30
0.0
 10
18.862415
 20
240.900573
 30
0.0
  0
LWPOLYLINE
  5
128
100
AcDbEntity
  8
Layer_1
 62
5
100
AcDbPolyline
 90
1
 70
1
 10
153.059436
 20
174.725020
 30
0.0
  0
SPLINE
  5
129
100
AcDbEntity
  8
Layer_1
 62
5
100
AcDbSpline
 70
8
 71
3
 72
8
 73
4
 74
0
 40
0
 40
0
 40
0
 40
0
 40
1
 40
1
 40
1
 40
1
 10
18.862415
 20
234.322163
 30
0.0
 10
18.862415
 20
232.681841
 30
0.0
 10
20.182630
 20
231.361620
 30
0.0
 10
21.822957
 20
231.361620
 30
0.0
  0
LWPOLYLINE
  5
12a
100
AcDbEntity
  8
Layer_1
 62
5
100
AcDbPolyline
 90
2
 70
0
 10
18.862415
 20
240.900573
 30
0.0
 10
18.862415
 20
234.322163
 30
0.0
  0
SPLINE
  5
12b
100
AcDbEntity
  8
Layer_1
 62
5
100
AcDbSpline
 70
8
 71
3
 72
8
 73
4
 74
0
 40
0
 40
0
 40
0
 40
0
 40
1
 40
1
 40
1
 40
1
 10
23.611995
 20
231.361620
 30
0.0
 10
23.612188
 20
232.189976
 30
0.0
 10
24.283806
 20
232.861362
 30
0.0
 10
25.112162
 20
232.861270
 30
0.0
  0
SPLINE
  5
12c
100
AcDbEntity
  8
Layer_1
 62
5
100
AcDbSpline
 70
8
 71
3
 72
8
 73
4
 74
0
 40
0
 40
0
 40
0
 40
0
 40
1
 40
1
 40
1
 40
1
 10
25.112162
 20
232.861270
 30
0.0
 10
25.940316
 20
232.861077
 30
0.0
 10
26.611619
 20
232.189774
 30
0.0
 10
26.611812
 20
231.361620
 30
0.0
  0
LWPOLYLINE
  5
12d
100
AcDbEntity
  8
Layer_1
 62
5
100
AcDbPolyline
 90
2
 70
0
 10
21.822957
 20
231.361620
 30
0.0
 10
23.611995
 20
231.361620
 30
0.0
  0
SPLINE
  5
12e
100
AcDbEntity
  8
Layer_1
 62
5
100
AcDbSpline
 70
8
 71
3
 72
8
 73
4
 74
0
 40
0
 40
0
 40
0
 40
0
 40
1
 40
1
 40
1
 40
1
 10
151.112220
 20
231.361620
 30
0.0
 10
151.112413
 20
232.189774
 30
0.0
 10
151.783716
 20
232.861077
 30
0.0
 10
152.611870
 20
232.861270
 30
0.0
  0
SPLINE
  5
12f
100
AcDbEntity
  8
Layer_1
 62
5
100
AcDbSpline
 70
8
 71
3
 72
8
 73
4
 74
0
 40
0
 40
0
 40
0
 40
0
 40
1
 40
1
 40
1
 40
1
 10
152.611870
 20
232.861270
 30
0.0
 10
153.440227
 20
232.861364
 30
0.0
 10
154.111847
 20
232.189977
 30
0.0
 10
154.112040
 20
231.361620
 30
0.0
  0
LWPOLYLINE
  5
130
100
AcDbEntity
  8
Layer_1
 62
5
100
AcDbPolyline
 90
6
 70
0
 10
26.611812
 20
231.361620
 30
0.0
 10
31.362427
 20
231.361620
 30
0.0
 10
36.112008
 20
236.111201
 30
0.0
 10
141.612030
 20
236.111201
 30
0.0
 10
146.362130
 20
231.361620
 30
0.0
 10
151.112220
 20
231.361620
 30
0.0
  0
SPLINE
  5
131
100
AcDbEntity
  8
Layer_1
 62
5
100
AcDbSpline
 70
8
 71
3
 72
8
 73
4
 74
0
 40
0
 40
0
 40
0
 40
0
 40
1
 40
1
 40
1
 40
1
 10
155.901600
 20
231.361620
 30
0.0
 10
157.541900
 20
231.361620
 30
0.0
 10
158.862140
 20
232.681841
 30
0.0
 10
158.862140
 20
234.322163
 30
0.0
  0
LWPOLYLINE
  5
132
100
AcDbEntity
  8
Layer_1
 62
5
100
AcDbPolyline
 90
2
 70
0
 10
154.112040
 20
231.361620
 30
0.0
 10
155.901600
 20
231.361620
 30
0.0
  0
SPLINE
  5
133
100
AcDbEntity
  8
Layer_1
 62
5
100
AcDbSpline
 70
8
 71
3
 72
8
 73
4
 74
0
 40
0
 40
0
 40
0
 40
0
 40
1
 40
1
 40
1
 40
1
 10
158.862140
 20
240.900573
 30
0.0
 10
158.862140
 20
242.540905
 30
0.0
 10
157.541900
 20
243.861632
 30
0.0
 10
155.901600
 20
243.861632
 30
0.0
  0
LWPOLYLINE
  5
134
100
AcDbEntity
  8
Layer_1
 62
5
100
AcDbPolyline
 90
2
 70
0
 10
158.862140
 20
234.322163
 30
0.0
 10
158.862140
 20
240.900573
 30
0.0
  0
SPLINE
  5
135
100
AcDbEntity
  8
Layer_1
 62
5
100
AcDbSpline
 70
8
 71
3
 72
8
 73
4
 74
0
 40
0
 40
0
 40
0
 40
0
 40
1
 40
1
 40
1
 40
1
 10
154.112040
 20
243.861632
 30
0.0
 10
154.112084
 20
243.463749
 30
0.0
 10
153.954045
 20
243.082150
 30
0.0
 10
153.672699
 20
242.800804
 30
0.0
  0
SPLINE
  5
136
100
AcDbEntity
  8
Layer_1
 62
5
100
AcDbSpline
 70
8
 71
3
 72
8
 73
4
 74
0
 40
0
 40
0
 40
0
 40
0
 40
1
 40
1
 40
1
 40
1
 10
153.672699
 20
242.800804
 30
0.0
 10
153.391353
 20
242.519459
 30
0.0
 10
153.009753
 20
242.361421
 30
0.0
 10
152.611870
 20
242.361466
 30
0.0
  0
SPLINE
  5
137
100
AcDbEntity
  8
Layer_1
 62
5
100
AcDbSpline
 70
8
 71
3
 72
8
 73
4
 74
0
 40
0
 40
0
 40
0
 40
0
 40
1
 40
1
 40
1
 40
1
 10
152.611870
 20
242.361466
 30
0.0
 10
151.783515
 20
242.361659
 30
0.0
 10
151.112128
 20
243.033277
 30
0.0
 10
151.112220
 20
243.861632
 30
0.0
  0
LWPOLYLINE
  5
138
100
AcDbEntity
  8
Layer_1
 62
5
100
AcDbPolyline
 90
2
 70
0
 10
155.901600
 20
243.861632
 30
0.0
 10
154.112040
 20
243.861632
 30
0.0
  0
SPLINE
  5
139
100
AcDbEntity
  8
Layer_1
 62
5
100
AcDbSpline
 70
8
 71
3
 72
8
 73
4
 74
0
 40
0
 40
0
 40
0
 40
0
 40
1
 40
1
 40
1
 40
1
 10
26.611812
 20
243.861632
 30
0.0
 10
26.611619
 20
243.033478
 30
0.0
 10
25.940316
 20
242.362175
 30
0.0
 10
25.112162
 20
242.361982
 30
0.0
  0
SPLINE
  5
13a
100
AcDbEntity
  8
Layer_1
 62
5
100
AcDbSpline
 70
8
 71
3
 72
8
 73
4
 74
0
 40
0
 40
0
 40
0
 40
0
 40
1
 40
1
 40
1
 40
1
 10
25.112162
 20
242.361982
 30
0.0
 10
24.283806
 20
242.361890
 30
0.0
 10
23.612188
 20
243.033276
 30
0.0
 10
23.611995
 20
243.861632
 30
0.0
  0
LWPOLYLINE
  5
13b
100
AcDbEntity
  8
Layer_1
 62
5
100
AcDbPolyline
 90
2
 70
0
 10
151.112220
 20
243.861632
 30
0.0
 10
26.611812
 20
243.861632
 30
0.0
  0
SPLINE
  5
13c
100
AcDbEntity
  8
Layer_1
 62
5
100
AcDbSpline
 70
8
 71
3
 72
8
 73
4
 74
0
 40
0
 40
0
 40
0
 40
0
 40
1
 40
1
 40
1
 40
1
 10
25.112034
 20
239.111563
 30
0.0
 10
24.505341
 20
239.111563
 30
0.0
 10
23.958386
 20
238.746100
 30
0.0
 10
23.726215
 20
238.185588
 30
0.0
  0
SPLINE
  5
13d
100
AcDbEntity
  8
Layer_1
 62
5
100
AcDbSpline
 70
8
 71
3
 72
8
 73
4
 74
0
 40
0
 40
0
 40
0
 40
0
 40
1
 40
1
 40
1
 40
1
 10
23.726215
 20
238.185588
 30
0.0
 10
23.494043
 20
237.625077
 30
0.0
 10
23.622377
 20
236.979900
 30
0.0
 10
24.051374
 20
236.550903
 30
0.0
  0
SPLINE
  5
13e
100
AcDbEntity
  8
Layer_1
 62
5
100
AcDbSpline
 70
8
 71
3
 72
8
 73
4
 74
0
 40
0
 40
0
 40
0
 40
0
 40
1
 40
1
 40
1
 40
1
 10
24.051374
 20
236.550903
 30
0.0
 10
24.480371
 20
236.121906
 30
0.0
 10
25.125548
 20
235.993572
 30
0.0
 10
25.686059
 20
236.225744
 30
0.0
  0
SPLINE
  5
13f
100
AcDbEntity
  8
Layer_1
 62
5
100
AcDbSpline
 70
8
 71
3
 72
8
 73
4
 74
0
 40
0
 40
0
 40
0
 40
0
 40
1
 40
1
 40
1
 40
1
 10
25.686059
 20
236.225744
 30
0.0
 10
26.246571
 20
236.457915
 30
0.0
 10
26.612034
 20
237.004870
 30
0.0
 10
26.612034
 20
237.611563
 30
0.0
  0
SPLINE
  5
140
100
AcDbEntity
  8
Layer_1
 62
5
100
AcDbSpline
 70
8
 71
3
 72
8
 73
4
 74
0
 40
0
 40
0
 40
0
 40
0
 40
1
 40
1
 40
1
 40
1
 10
26.612034
 20
237.611563
 30
0.0
 10
26.612034
 20
238.009388
 30
0.0
 10
26.453999
 20
238.390919
 30
0.0
 10
26.172694
 20
238.672223
 30
0.0
  0
SPLINE
  5
141
100
AcDbEntity
  8
Layer_1
 62
5
100
AcDbSpline
 70
8
 71
3
 72
8
 73
4
 74
0
 40
0
 40
0
 40
0
 40
0
 40
1
 40
1
 40
1
 40
1
 10
26.172694
 20
238.672223
 30
0.0
 10
25.891390
 20
238.953528
 30
0.0
 10
25.509859
 20
239.111563
 30
0.0
 10
25.112034
 20
239.111563
 30
0.0
  0
LWPOLYLINE
  5
142
100
AcDbEntity
  8
Layer_1
 62
5
100
AcDbPolyline
 90
2
 70
0
 10
23.611995
 20
243.861632
 30
0.0
 10
21.822957
 20
243.861632
 30
0.0
  0
SPLINE
  5
143
100
AcDbEntity
  8
Layer_1
 62
5
100
AcDbSpline
 70
8
 71
3
 72
8
 73
4
 74
0
 40
0
 40
0
 40
0
 40
0
 40
1
 40
1
 40
1
 40
1
 10
152.612030
 20
239.111563
 30
0.0
 10
153.218723
 20
239.111563
 30
0.0
 10
153.765678
 20
238.746100
 30
0.0
 10
153.997849
 20
238.185588
 30
0.0
  0
SPLINE
  5
144
100
AcDbEntity
  8
Layer_1
 62
5
100
AcDbSpline
 70
8
 71
3
 72
8
 73
4
 74
0
 40
0
 40
0
 40
0
 40
0
 40
1
 40
1
 40
1
 40
1
 10
153.997849
 20
238.185588
 30
0.0
 10
154.230021
 20
237.625077
 30
0.0
 10
154.101687
 20
236.979900
 30
0.0
 10
153.672690
 20
236.550903
 30
0.0
  0
SPLINE
  5
145
100
AcDbEntity
  8
Layer_1
 62
5
100
AcDbSpline
 70
8
 71
3
 72
8
 73
4
 74
0
 40
0
 40
0
 40
0
 40
0
 40
1
 40
1
 40
1
 40
1
 10
153.672690
 20
236.550903
 30
0.0
 10
153.243693
 20
236.121906
 30
0.0
 10
152.598516
 20
235.993572
 30
0.0
 10
152.038005
 20
236.225744
 30
0.0
  0
SPLINE
  5
146
100
AcDbEntity
  8
Layer_1
 62
5
100
AcDbSpline
 70
8
 71
3
 72
8
 73
4
 74
0
 40
0
 40
0
 40
0
 40
0
 40
1
 40
1
 40
1
 40
1
 10
152.038005
 20
236.225744
 30
0.0
 10
151.477493
 20
236.457915
 30
0.0
 10
151.112030
 20
237.004870
 30
0.0
 10
151.112030
 20
237.611563
 30
0.0
  0
SPLINE
  5
147
100
AcDbEntity
  8
Layer_1
 62
5
100
AcDbSpline
 70
8
 71
3
 72
8
 73
4
 74
0
 40
0
 40
0
 40
0
 40
0
 40
1
 40
1
 40
1
 40
1
 10
151.112030
 20
237.611563
 30
0.0
 10
151.112030
 20
238.009388
 30
0.0
 10
151.270065
 20
238.390919
 30
0.0
 10
151.551370
 20
238.672223
 30
0.0
  0
SPLINE
  5
148
100
AcDbEntity
  8
Layer_1
 62
5
100
AcDbSpline
 70
8
 71
3
 72
8
 73
4
 74
0
 40
0
 40
0
 40
0
 40
0
 40
1
 40
1
 40
1
 40
1
 10
151.551370
 20
238.672223
 30
0.0
 10
151.832674
 20
238.953528
 30
0.0
 10
152.214205
 20
239.111563
 30
0.0
 10
152.612030
 20
239.111563
 30
0.0
  0
LWPOLYLINE
  5
149
100
AcDbEntity
  8
Layer_1
 62
5
100
AcDbPolyline
 90
1
 70
1
 10
25.112034
 20
239.111563
 30
0.0
  0
LWPOLYLINE
  5
14a
100
AcDbEntity
  8
Layer_1
 62
5
100
AcDbPolyline
 90
1
 70
1
 10
152.612030
 20
239.111563
 30
0.0
  0
SPLINE
  5
14b
100
AcDbEntity
  8
Layer_1
 62
6
100
AcDbSpline
 70
8
 71
3
 72
8
 73
4
 74
0
 40
0
 40
0
 40
0
 40
0
 40
1
 40
1
 40
1
 40
1
 10
155.901620
 20
285.872183
 30
0.0
 10
157.541945
 20
285.872183
 30
0.0
 10
158.862163
 20
284.551459
 30
0.0
 10
158.862163
 20
282.911123
 30
0.0
  0
LWPOLYLINE
  5
14c
100
AcDbEntity
  8
Layer_1
 62
6
100
AcDbPolyline
 90
3
 70
0
 10
145.612325
 20
287.872578
 30
0.0
 10
148.612142
 20
285.872183
 30
0.0
 10
155.901620
 20
285.872183
 30
0.0
  0
SPLINE
  5
14d
100
AcDbEntity
  8
Layer_1
 62
6
100
AcDbSpline
 70
8
 71
3
 72
8
 73
4
 74
0
 40
0
 40
0
 40
0
 40
0
 40
1
 40
1
 40
1
 40
1
 10
158.862163
 20
263.832700
 30
0.0
 10
158.862163
 20
262.192370
 30
0.0
 10
157.541945
 20
260.872160
 30
0.0
 10
155.901620
 20
260.872160
 30
0.0
  0
LWPOLYLINE
  5
14e
100
AcDbEntity
  8
Layer_1
 62
6
100
AcDbPolyline
 90
5
 70
0
 10
158.862163
 20
282.911123
 30
0.0
 10
158.862163
 20
276.660859
 30
0.0
 10
158.862163
 20
276.332714
 30
0.0
 10
158.862163
 20
270.082966
 30
0.0
 10
158.862163
 20
263.832700
 30
0.0
  0
SPLINE
  5
14f
100
AcDbEntity
  8
Layer_1
 62
6
100
AcDbSpline
 70
8
 71
3
 72
8
 73
4
 74
0
 40
0
 40
0
 40
0
 40
0
 40
1
 40
1
 40
1
 40
1
 10
21.822980
 20
260.872160
 30
0.0
 10
20.182640
 20
260.872160
 30
0.0
 10
18.862440
 20
262.192370
 30
0.0
 10
18.862440
 20
263.832700
 30
0.0
  0
LWPOLYLINE
  5
150
100
AcDbEntity
  8
Layer_1
 62
6
100
AcDbPolyline
 90
6
 70
0
 10
155.901620
 20
260.872160
 30
0.0
 10
146.362150
 20
260.872160
 30
0.0
 10
141.612569
 20
265.621740
 30
0.0
 10
36.112550
 20
265.621740
 30
0.0
 10
31.362450
 20
260.872160
 30
0.0
 10
21.822980
 20
260.872160
 30
0.0
  0
SPLINE
  5
151
100
AcDbEntity
  8
Layer_1
 62
6
100
AcDbSpline
 70
8
 71
3
 72
8
 73
4
 74
0
 40
0
 40
0
 40
0
 40
0
 40
1
 40
1
 40
1
 40
1
 10
18.862440
 20
282.911123
 30
0.0
 10
18.862440
 20
284.551459
 30
0.0
 10
20.182640
 20
285.872183
 30
0.0
 10
21.822980
 20
285.872183
 30
0.0
  0
LWPOLYLINE
  5
152
100
AcDbEntity
  8
Layer_1
 62
6
100
AcDbPolyline
 90
5
 70
0
 10
18.862440
 20
263.832700
 30
0.0
 10
18.862440
 20
270.082966
 30
0.0
 10
18.862440
 20
276.332714
 30
0.0
 10
18.862440
 20
276.660859
 30
0.0
 10
18.862440
 20
282.911123
 30
0.0
  0
SPLINE
  5
153
100
AcDbEntity
  8
Layer_1
 62
6
100
AcDbSpline
 70
8
 71
3
 72
8
 73
4
 74
0
 40
0
 40
0
 40
0
 40
0
 40
1
 40
1
 40
1
 40
1
 10
126.716101
 20
283.879667
 30
0.0
 10
133.977061
 20
283.884567
 30
0.0
 10
133.948276
 20
283.853417
 30
0.0
 10
141.612566
 20
283.872367
 30
0.0
  0
LWPOLYLINE
  5
154
100
AcDbEntity
  8
Layer_1
 62
6
100
AcDbPolyline
 90
8
 70
0
 10
21.822980
 20
285.872183
 30
0.0
 10
119.612362
 20
285.872183
 30
0.0
 10
122.612179
 20
287.872578
 30
0.0
 10
125.612513
 20
287.872578
 30
0.0
 10
125.662313
 20
285.798178
 30
0.0
 10
125.686093
 20
283.877067
 30
0.0
 10
126.686031
 20
283.877067
 30
0.0
 10
126.716101
 20
283.879667
 30
0.0
  0
SPLINE
  5
155
100
AcDbEntity
  8
Layer_1
 62
5
100
AcDbSpline
 70
8
 71
3
 72
8
 73
4
 74
0
 40
0
 40
0
 40
0
 40
0
 40
1
 40
1
 40
1
 40
1
 10
152.612162
 20
281.122187
 30
0.0
 10
153.218855
 20
281.122187
 30
0.0
 10
153.765810
 20
280.756724
 30
0.0
 10
153.997981
 20
280.196212
 30
0.0
  0
SPLINE
  5
156
100
AcDbEntity
  8
Layer_1
 62
5
100
AcDbSpline
 70
8
 71
3
 72
8
 73
4
 74
0
 40
0
 40
0
 40
0
 40
0
 40
1
 40
1
 40
1
 40
1
 10
153.997981
 20
280.196212
 30
0.0
 10
154.230153
 20
279.635701
 30
0.0
 10
154.101819
 20
278.990524
 30
0.0
 10
153.672822
 20
278.561527
 30
0.0
  0
SPLINE
  5
157
100
AcDbEntity
  8
Layer_1
 62
5
100
AcDbSpline
 70
8
 71
3
 72
8
 73
4
 74
0
 40
0
 40
0
 40
0
 40
0
 40
1
 40
1
 40
1
 40
1
 10
153.672822
 20
278.561527
 30
0.0
 10
153.243825
 20
278.132530
 30
0.0
 10
152.598648
 20
278.004196
 30
0.0
 10
152.038137
 20
278.236368
 30
0.0
  0
SPLINE
  5
158
100
AcDbEntity
  8
Layer_1
 62
5
100
AcDbSpline
 70
8
 71
3
 72
8
 73
4
 74
0
 40
0
 40
0
 40
0
 40
0
 40
1
 40
1
 40
1
 40
1
 10
152.038137
 20
278.236368
 30
0.0
 10
151.477625
 20
278.468539
 30
0.0
 10
151.112162
 20
279.015494
 30
0.0
 10
151.112162
 20
279.622187
 30
0.0
  0
SPLINE
  5
159
100
AcDbEntity
  8
Layer_1
 62
5
100
AcDbSpline
 70
8
 71
3
 72
8
 73
4
 74
0
 40
0
 40
0
 40
0
 40
0
 40
1
 40
1
 40
1
 40
1
 10
151.112162
 20
279.622187
 30
0.0
 10
151.112162
 20
280.020012
 30
0.0
 10
151.270197
 20
280.401543
 30
0.0
 10
151.551502
 20
280.682847
 30
0.0
  0
SPLINE
  5
15a
100
AcDbEntity
  8
Layer_1
 62
5
100
AcDbSpline
 70
8
 71
3
 72
8
 73
4
 74
0
 40
0
 40
0
 40
0
 40
0
 40
1
 40
1
 40
1
 40
1
 10
151.551502
 20
280.682847
 30
0.0
 10
151.832806
 20
280.964152
 30
0.0
 10
152.214337
 20
281.122187
 30
0.0
 10
152.612162
 20
281.122187
 30
0.0
  0
LWPOLYLINE
  5
15b
100
AcDbEntity
  8
Layer_1
 62
6
100
AcDbPolyline
 90
5
 70
0
 10
141.612566
 20
283.872367
 30
0.0
 10
142.612505
 20
283.872367
 30
0.0
 10
142.612505
 20
285.872245
 30
0.0
 10
142.612505
 20
287.872640
 30
0.0
 10
145.612325
 20
287.872578
 30
0.0
  0
SPLINE
  5
15c
100
AcDbEntity
  8
Layer_1
 62
5
100
AcDbSpline
 70
8
 71
3
 72
8
 73
4
 74
0
 40
0
 40
0
 40
0
 40
0
 40
1
 40
1
 40
1
 40
1
 10
152.612162
 20
268.622190
 30
0.0
 10
153.218855
 20
268.622190
 30
0.0
 10
153.765810
 20
268.256727
 30
0.0
 10
153.997981
 20
267.696215
 30
0.0
  0
SPLINE
  5
15d
100
AcDbEntity
  8
Layer_1
 62
5
100
AcDbSpline
 70
8
 71
3
 72
8
 73
4
 74
0
 40
0
 40
0
 40
0
 40
0
 40
1
 40
1
 40
1
 40
1
 10
153.997981
 20
267.696215
 30
0.0
 10
154.230153
 20
267.135704
 30
0.0
 10
154.101819
 20
266.490527
 30
0.0
 10
153.672822
 20
266.061530
 30
0.0
  0
SPLINE
  5
15e
100
AcDbEntity
  8
Layer_1
 62
5
100
AcDbSpline
 70
8
 71
3
 72
8
 73
4
 74
0
 40
0
 40
0
 40
0
 40
0
 40
1
 40
1
 40
1
 40
1
 10
153.672822
 20
266.061530
 30
0.0
 10
153.243825
 20
265.632533
 30
0.0
 10
152.598648
 20
265.504199
 30
0.0
 10
152.038137
 20
265.736371
 30
0.0
  0
SPLINE
  5
15f
100
AcDbEntity
  8
Layer_1
 62
5
100
AcDbSpline
 70
8
 71
3
 72
8
 73
4
 74
0
 40
0
 40
0
 40
0
 40
0
 40
1
 40
1
 40
1
 40
1
 10
152.038137
 20
265.736371
 30
0.0
 10
151.477625
 20
265.968542
 30
0.0
 10
151.112162
 20
266.515497
 30
0.0
 10
151.112162
 20
267.122190
 30
0.0
  0
SPLINE
  5
160
100
AcDbEntity
  8
Layer_1
 62
5
100
AcDbSpline
 70
8
 71
3
 72
8
 73
4
 74
0
 40
0
 40
0
 40
0
 40
0
 40
1
 40
1
 40
1
 40
1
 10
151.112162
 20
267.122190
 30
0.0
 10
151.112162
 20
267.520015
 30
0.0
 10
151.270197
 20
267.901546
 30
0.0
 10
151.551502
 20
268.182850
 30
0.0
  0
SPLINE
  5
161
100
AcDbEntity
  8
Layer_1
 62
5
100
AcDbSpline
 70
8
 71
3
 72
8
 73
4
 74
0
 40
0
 40
0
 40
0
 40
0
 40
1
 40
1
 40
1
 40
1
 10
151.551502
 20
268.182850
 30
0.0
 10
151.832806
 20
268.464155
 30
0.0
 10
152.214337
 20
268.622190
 30
0.0
 10
152.612162
 20
268.622190
 30
0.0
  0
LWPOLYLINE
  5
162
100
AcDbEntity
  8
Layer_1
 62
5
100
AcDbPolyline
 90
1
 70
1
 10
152.612162
 20
281.122187
 30
0.0
  0
SPLINE
  5
163
100
AcDbEntity
  8
Layer_1
 62
5
100
AcDbSpline
 70
8
 71
3
 72
8
 73
4
 74
0
 40
0
 40
0
 40
0
 40
0
 40
1
 40
1
 40
1
 40
1
 10
152.612162
 20
274.872187
 30
0.0
 10
153.218855
 20
274.872187
 30
0.0
 10
153.765810
 20
274.506724
 30
0.0
 10
153.997981
 20
273.946212
 30
0.0
  0
SPLINE
  5
164
100
AcDbEntity
  8
Layer_1
 62
5
100
AcDbSpline
 70
8
 71
3
 72
8
 73
4
 74
0
 40
0
 40
0
 40
0
 40
0
 40
1
 40
1
 40
1
 40
1
 10
153.997981
 20
273.946212
 30
0.0
 10
154.230153
 20
273.385701
 30
0.0
 10
154.101819
 20
272.740524
 30
0.0
 10
153.672822
 20
272.311527
 30
0.0
  0
SPLINE
  5
165
100
AcDbEntity
  8
Layer_1
 62
5
100
AcDbSpline
 70
8
 71
3
 72
8
 73
4
 74
0
 40
0
 40
0
 40
0
 40
0
 40
1
 40
1
 40
1
 40
1
 10
153.672822
 20
272.311527
 30
0.0
 10
153.243825
 20
271.882530
 30
0.0
 10
152.598648
 20
271.754196
 30
0.0
 10
152.038137
 20
271.986368
 30
0.0
  0
SPLINE
  5
166
100
AcDbEntity
  8
Layer_1
 62
5
100
AcDbSpline
 70
8
 71
3
 72
8
 73
4
 74
0
 40
0
 40
0
 40
0
 40
0
 40
1
 40
1
 40
1
 40
1
 10
152.038137
 20
271.986368
 30
0.0
 10
151.477625
 20
272.218539
 30
0.0
 10
151.112162
 20
272.765494
 30
0.0
 10
151.112162
 20
273.372187
 30
0.0
  0
SPLINE
  5
167
100
AcDbEntity
  8
Layer_1
 62
5
100
AcDbSpline
 70
8
 71
3
 72
8
 73
4
 74
0
 40
0
 40
0
 40
0
 40
0
 40
1
 40
1
 40
1
 40
1
 10
151.112162
 20
273.372187
 30
0.0
 10
151.112162
 20
273.770012
 30
0.0
 10
151.270197
 20
274.151543
 30
0.0
 10
151.551502
 20
274.432847
 30
0.0
  0
SPLINE
  5
168
100
AcDbEntity
  8
Layer_1
 62
5
100
AcDbSpline
 70
8
 71
3
 72
8
 73
4
 74
0
 40
0
 40
0
 40
0
 40
0
 40
1
 40
1
 40
1
 40
1
 10
151.551502
 20
274.432847
 30
0.0
 10
151.832806
 20
274.714152
 30
0.0
 10
152.214337
 20
274.872187
 30
0.0
 10
152.612162
 20
274.872187
 30
0.0
  0
LWPOLYLINE
  5
169
100
AcDbEntity
  8
Layer_1
 62
5
100
AcDbPolyline
 90
1
 70
1
 10
152.612162
 20
268.622190
 30
0.0
  0
SPLINE
  5
16a
100
AcDbEntity
  8
Layer_1
 62
5
100
AcDbSpline
 70
8
 71
3
 72
8
 73
4
 74
0
 40
0
 40
0
 40
0
 40
0
 40
1
 40
1
 40
1
 40
1
 10
25.112430
 20
281.122179
 30
0.0
 10
24.505737
 20
281.122179
 30
0.0
 10
23.958782
 20
280.756716
 30
0.0
 10
23.726611
 20
280.196204
 30
0.0
  0
SPLINE
  5
16b
100
AcDbEntity
  8
Layer_1
 62
5
100
AcDbSpline
 70
8
 71
3
 72
8
 73
4
 74
0
 40
0
 40
0
 40
0
 40
0
 40
1
 40
1
 40
1
 40
1
 10
23.726611
 20
280.196204
 30
0.0
 10
23.494439
 20
279.635693
 30
0.0
 10
23.622773
 20
278.990516
 30
0.0
 10
24.051770
 20
278.561519
 30
0.0
  0
SPLINE
  5
16c
100
AcDbEntity
  8
Layer_1
 62
5
100
AcDbSpline
 70
8
 71
3
 72
8
 73
4
 74
0
 40
0
 40
0
 40
0
 40
0
 40
1
 40
1
 40
1
 40
1
 10
24.051770
 20
278.561519
 30
0.0
 10
24.480767
 20
278.132522
 30
0.0
 10
25.125944
 20
278.004188
 30
0.0
 10
25.686455
 20
278.236360
 30
0.0
  0
SPLINE
  5
16d
100
AcDbEntity
  8
Layer_1
 62
5
100
AcDbSpline
 70
8
 71
3
 72
8
 73
4
 74
0
 40
0
 40
0
 40
0
 40
0
 40
1
 40
1
 40
1
 40
1
 10
25.686455
 20
278.236360
 30
0.0
 10
26.246967
 20
278.468531
 30
0.0
 10
26.612430
 20
279.015486
 30
0.0
 10
26.612430
 20
279.622179
 30
0.0
  0
SPLINE
  5
16e
100
AcDbEntity
  8
Layer_1
 62
5
100
AcDbSpline
 70
8
 71
3
 72
8
 73
4
 74
0
 40
0
 40
0
 40
0
 40
0
 40
1
 40
1
 40
1
 40
1
 10
26.612430
 20
279.622179
 30
0.0
 10
26.612430
 20
280.020004
 30
0.0
 10
26.454395
 20
280.401535
 30
0.0
 10
26.173090
 20
280.682839
 30
0.0
  0
SPLINE
  5
16f
100
AcDbEntity
  8
Layer_1
 62
5
100
AcDbSpline
 70
8
 71
3
 72
8
 73
4
 74
0
 40
0
 40
0
 40
0
 40
0
 40
1
 40
1
 40
1
 40
1
 10
26.173090
 20
280.682839
 30
0.0
 10
25.891786
 20
280.964144
 30
0.0
 10
25.510255
 20
281.122179
 30
0.0
 10
25.112430
 20
281.122179
 30
0.0
  0
LWPOLYLINE
  5
170
100
AcDbEntity
  8
Layer_1
 62
5
100
AcDbPolyline
 90
1
 70
1
 10
152.612162
 20
274.872187
 30
0.0
  0
SPLINE
  5
171
100
AcDbEntity
  8
Layer_1
 62
5
100
AcDbSpline
 70
8
 71
3
 72
8
 73
4
 74
0
 40
0
 40
0
 40
0
 40
0
 40
1
 40
1
 40
1
 40
1
 10
25.112440
 20
268.622180
 30
0.0
 10
24.505747
 20
268.622180
 30
0.0
 10
23.958792
 20
268.256717
 30
0.0
 10
23.726621
 20
267.696205
 30
0.0
  0
SPLINE
  5
172
100
AcDbEntity
  8
Layer_1
 62
5
100
AcDbSpline
 70
8
 71
3
 72
8
 73
4
 74
0
 40
0
 40
0
 40
0
 40
0
 40
1
 40
1
 40
1
 40
1
 10
23.726621
 20
267.696205
 30
0.0
 10
23.494449
 20
267.135694
 30
0.0
 10
23.622783
 20
266.490517
 30
0.0
 10
24.051780
 20
266.061520
 30
0.0
  0
SPLINE
  5
173
100
AcDbEntity
  8
Layer_1
 62
5
100
AcDbSpline
 70
8
 71
3
 72
8
 73
4
 74
0
 40
0
 40
0
 40
0
 40
0
 40
1
 40
1
 40
1
 40
1
 10
24.051780
 20
266.061520
 30
0.0
 10
24.480777
 20
265.632523
 30
0.0
 10
25.125954
 20
265.504189
 30
0.0
 10
25.686465
 20
265.736361
 30
0.0
  0
SPLINE
  5
174
100
AcDbEntity
  8
Layer_1
 62
5
100
AcDbSpline
 70
8
 71
3
 72
8
 73
4
 74
0
 40
0
 40
0
 40
0
 40
0
 40
1
 40
1
 40
1
 40
1
 10
25.686465
 20
265.736361
 30
0.0
 10
26.246977
 20
265.968532
 30
0.0
 10
26.612440
 20
266.515487
 30
0.0
 10
26.612440
 20
267.122180
 30
0.0
  0
SPLINE
  5
175
100
AcDbEntity
  8
Layer_1
 62
5
100
AcDbSpline
 70
8
 71
3
 72
8
 73
4
 74
0
 40
0
 40
0
 40
0
 40
0
 40
1
 40
1
 40
1
 40
1
 10
26.612440
 20
267.122180
 30
0.0
 10
26.612440
 20
267.520005
 30
0.0
 10
26.454405
 20
267.901536
 30
0.0
 10
26.173100
 20
268.182840
 30
0.0
  0
SPLINE
  5
176
100
AcDbEntity
  8
Layer_1
 62
5
100
AcDbSpline
 70
8
 71
3
 72
8
 73
4
 74
0
 40
0
 40
0
 40
0
 40
0
 40
1
 40
1
 40
1
 40
1
 10
26.173100
 20
268.182840
 30
0.0
 10
25.891796
 20
268.464145
 30
0.0
 10
25.510265
 20
268.622180
 30
0.0
 10
25.112440
 20
268.622180
 30
0.0
  0
LWPOLYLINE
  5
177
100
AcDbEntity
  8
Layer_1
 62
5
100
AcDbPolyline
 90
1
 70
1
 10
25.112430
 20
281.122179
 30
0.0
  0
SPLINE
  5
178
100
AcDbEntity
  8
Layer_1
 62
5
100
AcDbSpline
 70
8
 71
3
 72
8
 73
4
 74
0
 40
0
 40
0
 40
0
 40
0
 40
1
 40
1
 40
1
 40
1
 10
25.112440
 20
274.872179
 30
0.0
 10
24.505747
 20
274.872179
 30
0.0
 10
23.958792
 20
274.506716
 30
0.0
 10
23.726621
 20
273.946204
 30
0.0
  0
SPLINE
  5
179
100
AcDbEntity
  8
Layer_1
 62
5
100
AcDbSpline
 70
8
 71
3
 72
8
 73
4
 74
0
 40
0
 40
0
 40
0
 40
0
 40
1
 40
1
 40
1
 40
1
 10
23.726621
 20
273.946204
 30
0.0
 10
23.494449
 20
273.385693
 30
0.0
 10
23.622783
 20
272.740516
 30
0.0
 10
24.051780
 20
272.311519
 30
0.0
  0
SPLINE
  5
17a
100
AcDbEntity
  8
Layer_1
 62
5
100
AcDbSpline
 70
8
 71
3
 72
8
 73
4
 74
0
 40
0
 40
0
 40
0
 40
0
 40
1
 40
1
 40
1
 40
1
 10
24.051780
 20
272.311519
 30
0.0
 10
24.480777
 20
271.882522
 30
0.0
 10
25.125954
 20
271.754188
 30
0.0
 10
25.686465
 20
271.986360
 30
0.0
  0
SPLINE
  5
17b
100
AcDbEntity
  8
Layer_1
 62
5
100
AcDbSpline
 70
8
 71
3
 72
8
 73
4
 74
0
 40
0
 40
0
 40
0
 40
0
 40
1
 40
1
 40
1
 40
1
 10
25.686465
 20
271.986360
 30
0.0
 10
26.246977
 20
272.218531
 30
0.0
 10
26.612440
 20
272.765486
 30
0.0
 10
26.612440
 20
273.372179
 30
0.0
  0
SPLINE
  5
17c
100
AcDbEntity
  8
Layer_1
 62
5
100
AcDbSpline
 70
8
 71
3
 72
8
 73
4
 74
0
 40
0
 40
0
 40
0
 40
0
 40
1
 40
1
 40
1
 40
1
 10
26.612440
 20
273.372179
 30
0.0
 10
26.612440
 20
273.770004
 30
0.0
 10
26.454405
 20
274.151535
 30
0.0
 10
26.173100
 20
274.432839
 30
0.0
  0
SPLINE
  5
17d
100
AcDbEntity
  8
Layer_1
 62
5
100
AcDbSpline
 70
8
 71
3
 72
8
 73
4
 74
0
 40
0
 40
0
 40
0
 40
0
 40
1
 40
1
 40
1
 40
1
 10
26.173100
 20
274.432839
 30
0.0
 10
25.891796
 20
274.714144
 30
0.0
 10
25.510265
 20
274.872179
 30
0.0
 10
25.112440
 20
274.872179
 30
0.0
  0
LWPOLYLINE
  5
17e
100
AcDbEntity
  8
Layer_1
 62
5
100
AcDbPolyline
 90
1
 70
1
 10
25.112440
 20
268.622180
 30
0.0
  0
SPLINE
  5
17f
100
AcDbEntity
  8
Layer_1
 62
5
100
AcDbSpline
 70
8
 71
3
 72
8
 73
4
 74
0
 40
0
 40
0
 40
0
 40
0
 40
1
 40
1
 40
1
 40
1
 10
21.918237
 20
258.881502
 30
0.0
 10
20.277910
 20
258.881502
 30
0.0
 10
18.957695
 20
257.560775
 30
0.0
 10
18.957695
 20
255.920443
 30
0.0
  0
LWPOLYLINE
  5
180
100
AcDbEntity
  8
Layer_1
 62
5
100
AcDbPolyline
 90
1
 70
1
 10
25.112440
 20
274.872179
 30
0.0
  0
SPLINE
  5
181
100
AcDbEntity
  8
Layer_1
 62
5
100
AcDbSpline
 70
8
 71
3
 72
8
 73
4
 74
0
 40
0
 40
0
 40
0
 40
0
 40
1
 40
1
 40
1
 40
1
 10
18.957695
 20
249.342033
 30
0.0
 10
18.957695
 20
247.701711
 30
0.0
 10
20.277910
 20
246.381490
 30
0.0
 10
21.918237
 20
246.381490
 30
0.0
  0
LWPOLYLINE
  5
182
100
AcDbEntity
  8
Layer_1
 62
5
100
AcDbPolyline
 90
2
 70
0
 10
18.957695
 20
255.920443
 30
0.0
 10
18.957695
 20
249.342033
 30
0.0
  0
SPLINE
  5
183
100
AcDbEntity
  8
Layer_1
 62
5
100
AcDbSpline
 70
8
 71
3
 72
8
 73
4
 74
0
 40
0
 40
0
 40
0
 40
0
 40
1
 40
1
 40
1
 40
1
 10
23.707275
 20
246.381490
 30
0.0
 10
23.707468
 20
247.209846
 30
0.0
 10
24.379086
 20
247.881232
 30
0.0
 10
25.207442
 20
247.881140
 30
0.0
  0
SPLINE
  5
184
100
AcDbEntity
  8
Layer_1
 62
5
100
AcDbSpline
 70
8
 71
3
 72
8
 73
4
 74
0
 40
0
 40
0
 40
0
 40
0
 40
1
 40
1
 40
1
 40
1
 10
25.207442
 20
247.881140
 30
0.0
 10
26.035596
 20
247.880947
 30
0.0
 10
26.706899
 20
247.209644
 30
0.0
 10
26.707092
 20
246.381490
 30
0.0
  0
LWPOLYLINE
  5
185
100
AcDbEntity
  8
Layer_1
 62
5
100
AcDbPolyline
 90
2
 70
0
 10
21.918237
 20
246.381490
 30
0.0
 10
23.707275
 20
246.381490
 30
0.0
  0
SPLINE
  5
186
100
AcDbEntity
  8
Layer_1
 62
5
100
AcDbSpline
 70
8
 71
3
 72
8
 73
4
 74
0
 40
0
 40
0
 40
0
 40
0
 40
1
 40
1
 40
1
 40
1
 10
151.207500
 20
246.381490
 30
0.0
 10
151.207693
 20
247.209644
 30
0.0
 10
151.878996
 20
247.880947
 30
0.0
 10
152.707150
 20
247.881140
 30
0.0
  0
SPLINE
  5
187
100
AcDbEntity
  8
Layer_1
 62
5
100
AcDbSpline
 70
8
 71
3
 72
8
 73
4
 74
0
 40
0
 40
0
 40
0
 40
0
 40
1
 40
1
 40
1
 40
1
 10
152.707150
 20
247.881140
 30
0.0
 10
153.535507
 20
247.881234
 30
0.0
 10
154.207127
 20
247.209847
 30
0.0
 10
154.207320
 20
246.381490
 30
0.0
  0
LWPOLYLINE
  5
188
100
AcDbEntity
  8
Layer_1
 62
5
100
AcDbPolyline
 90
6
 70
0
 10
26.707092
 20
246.381490
 30
0.0
 10
31.457707
 20
246.381490
 30
0.0
 10
36.207288
 20
251.131071
 30
0.0
 10
141.707310
 20
251.131071
 30
0.0
 10
146.457410
 20
246.381490
 30
0.0
 10
151.207500
 20
246.381490
 30
0.0
  0
SPLINE
  5
189
100
AcDbEntity
  8
Layer_1
 62
5
100
AcDbSpline
 70
8
 71
3
 72
8
 73
4
 74
0
 40
0
 40
0
 40
0
 40
0
 40
1
 40
1
 40
1
 40
1
 10
155.996880
 20
246.381490
 30
0.0
 10
157.637180
 20
246.381490
 30
0.0
 10
158.957420
 20
247.701711
 30
0.0
 10
158.957420
 20
249.342033
 30
0.0
  0
LWPOLYLINE
  5
18a
100
AcDbEntity
  8
Layer_1
 62
5
100
AcDbPolyline
 90
2
 70
0
 10
154.207320
 20
246.381490
 30
0.0
 10
155.996880
 20
246.381490
 30
0.0
  0
SPLINE
  5
18b
100
AcDbEntity
  8
Layer_1
 62
5
100
AcDbSpline
 70
8
 71
3
 72
8
 73
4
 74
0
 40
0
 40
0
 40
0
 40
0
 40
1
 40
1
 40
1
 40
1
 10
158.957420
 20
255.920443
 30
0.0
 10
158.957420
 20
257.560775
 30
0.0
 10
157.637180
 20
258.881502
 30
0.0
 10
155.996880
 20
258.881502
 30
0.0
  0
LWPOLYLINE
  5
18c
100
AcDbEntity
  8
Layer_1
 62
5
100
AcDbPolyline
 90
2
 70
0
 10
158.957420
 20
249.342033
 30
0.0
 10
158.957420
 20
255.920443
 30
0.0
  0
SPLINE
  5
18d
100
AcDbEntity
  8
Layer_1
 62
5
100
AcDbSpline
 70
8
 71
3
 72
8
 73
4
 74
0
 40
0
 40
0
 40
0
 40
0
 40
1
 40
1
 40
1
 40
1
 10
154.207320
 20
258.881502
 30
0.0
 10
154.207364
 20
258.483619
 30
0.0
 10
154.049325
 20
258.102020
 30
0.0
 10
153.767979
 20
257.820674
 30
0.0
  0
SPLINE
  5
18e
100
AcDbEntity
  8
Layer_1
 62
5
100
AcDbSpline
 70
8
 71
3
 72
8
 73
4
 74
0
 40
0
 40
0
 40
0
 40
0
 40
1
 40
1
 40
1
 40
1
 10
153.767979
 20
257.820674
 30
0.0
 10
153.486633
 20
257.539329
 30
0.0
 10
153.105033
 20
257.381291
 30
0.0
 10
152.707150
 20
257.381336
 30
0.0
  0
SPLINE
  5
18f
100
AcDbEntity
  8
Layer_1
 62
5
100
AcDbSpline
 70
8
 71
3
 72
8
 73
4
 74
0
 40
0
 40
0
 40
0
 40
0
 40
1
 40
1
 40
1
 40
1
 10
152.707150
 20
257.381336
 30
0.0
 10
151.878795
 20
257.381529
 30
0.0
 10
151.207408
 20
258.053147
 30
0.0
 10
151.207500
 20
258.881502
 30
0.0
  0
LWPOLYLINE
  5
190
100
AcDbEntity
  8
Layer_1
 62
5
100
AcDbPolyline
 90
2
 70
0
 10
155.996880
 20
258.881502
 30
0.0
 10
154.207320
 20
258.881502
 30
0.0
  0
SPLINE
  5
191
100
AcDbEntity
  8
Layer_1
 62
5
100
AcDbSpline
 70
8
 71
3
 72
8
 73
4
 74
0
 40
0
 40
0
 40
0
 40
0
 40
1
 40
1
 40
1
 40
1
 10
26.707092
 20
258.881502
 30
0.0
 10
26.706899
 20
258.053348
 30
0.0
 10
26.035596
 20
257.382045
 30
0.0
 10
25.207442
 20
257.381852
 30
0.0
  0
SPLINE
  5
192
100
AcDbEntity
  8
Layer_1
 62
5
100
AcDbSpline
 70
8
 71
3
 72
8
 73
4
 74
0
 40
0
 40
0
 40
0
 40
0
 40
1
 40
1
 40
1
 40
1
 10
25.207442
 20
257.381852
 30
0.0
 10
24.379086
 20
257.381760
 30
0.0
 10
23.707468
 20
258.053146
 30
0.0
 10
23.707275
 20
258.881502
 30
0.0
  0
LWPOLYLINE
  5
193
100
AcDbEntity
  8
Layer_1
 62
5
100
AcDbPolyline
 90
2
 70
0
 10
151.207500
 20
258.881502
 30
0.0
 10
26.707092
 20
258.881502
 30
0.0
  0
SPLINE
  5
194
100
AcDbEntity
  8
Layer_1
 62
5
100
AcDbSpline
 70
8
 71
3
 72
8
 73
4
 74
0
 40
0
 40
0
 40
0
 40
0
 40
1
 40
1
 40
1
 40
1
 10
25.207314
 20
254.131433
 30
0.0
 10
24.600621
 20
254.131433
 30
0.0
 10
24.053666
 20
253.765970
 30
0.0
 10
23.821495
 20
253.205458
 30
0.0
  0
SPLINE
  5
195
100
AcDbEntity
  8
Layer_1
 62
5
100
AcDbSpline
 70
8
 71
3
 72
8
 73
4
 74
0
 40
0
 40
0
 40
0
 40
0
 40
1
 40
1
 40
1
 40
1
 10
23.821495
 20
253.205458
 30
0.0
 10
23.589323
 20
252.644947
 30
0.0
 10
23.717657
 20
251.999770
 30
0.0
 10
24.146654
 20
251.570773
 30
0.0
  0
SPLINE
  5
196
100
AcDbEntity
  8
Layer_1
 62
5
100
AcDbSpline
 70
8
 71
3
 72
8
 73
4
 74
0
 40
0
 40
0
 40
0
 40
0
 40
1
 40
1
 40
1
 40
1
 10
24.146654
 20
251.570773
 30
0.0
 10
24.575651
 20
251.141776
 30
0.0
 10
25.220828
 20
251.013442
 30
0.0
 10
25.781339
 20
251.245614
 30
0.0
  0
SPLINE
  5
197
100
AcDbEntity
  8
Layer_1
 62
5
100
AcDbSpline
 70
8
 71
3
 72
8
 73
4
 74
0
 40
0
 40
0
 40
0
 40
0
 40
1
 40
1
 40
1
 40
1
 10
25.781339
 20
251.245614
 30
0.0
 10
26.341851
 20
251.477785
 30
0.0
 10
26.707314
 20
252.024740
 30
0.0
 10
26.707314
 20
252.631433
 30
0.0
  0
SPLINE
  5
198
100
AcDbEntity
  8
Layer_1
 62
5
100
AcDbSpline
 70
8
 71
3
 72
8
 73
4
 74
0
 40
0
 40
0
 40
0
 40
0
 40
1
 40
1
 40
1
 40
1
 10
26.707314
 20
252.631433
 30
0.0
 10
26.707314
 20
253.029258
 30
0.0
 10
26.549279
 20
253.410789
 30
0.0
 10
26.267974
 20
253.692093
 30
0.0
  0
SPLINE
  5
199
100
AcDbEntity
  8
Layer_1
 62
5
100
AcDbSpline
 70
8
 71
3
 72
8
 73
4
 74
0
 40
0
 40
0
 40
0
 40
0
 40
1
 40
1
 40
1
 40
1
 10
26.267974
 20
253.692093
 30
0.0
 10
25.986670
 20
253.973398
 30
0.0
 10
25.605139
 20
254.131433
 30
0.0
 10
25.207314
 20
254.131433
 30
0.0
  0
LWPOLYLINE
  5
19a
100
AcDbEntity
  8
Layer_1
 62
5
100
AcDbPolyline
 90
2
 70
0
 10
23.707275
 20
258.881502
 30
0.0
 10
21.918237
 20
258.881502
 30
0.0
  0
SPLINE
  5
19b
100
AcDbEntity
  8
Layer_1
 62
5
100
AcDbSpline
 70
8
 71
3
 72
8
 73
4
 74
0
 40
0
 40
0
 40
0
 40
0
 40
1
 40
1
 40
1
 40
1
 10
152.707310
 20
254.131433
 30
0.0
 10
153.314003
 20
254.131433
 30
0.0
 10
153.860958
 20
253.765970
 30
0.0
 10
154.093129
 20
253.205458
 30
0.0
  0
SPLINE
  5
19c
100
AcDbEntity
  8
Layer_1
 62
5
100
AcDbSpline
 70
8
 71
3
 72
8
 73
4
 74
0
 40
0
 40
0
 40
0
 40
0
 40
1
 40
1
 40
1
 40
1
 10
154.093129
 20
253.205458
 30
0.0
 10
154.325301
 20
252.644947
 30
0.0
 10
154.196967
 20
251.999770
 30
0.0
 10
153.767970
 20
251.570773
 30
0.0
  0
SPLINE
  5
19d
100
AcDbEntity
  8
Layer_1
 62
5
100
AcDbSpline
 70
8
 71
3
 72
8
 73
4
 74
0
 40
0
 40
0
 40
0
 40
0
 40
1
 40
1
 40
1
 40
1
 10
153.767970
 20
251.570773
 30
0.0
 10
153.338973
 20
251.141776
 30
0.0
 10
152.693796
 20
251.013442
 30
0.0
 10
152.133285
 20
251.245614
 30
0.0
  0
SPLINE
  5
19e
100
AcDbEntity
  8
Layer_1
 62
5
100
AcDbSpline
 70
8
 71
3
 72
8
 73
4
 74
0
 40
0
 40
0
 40
0
 40
0
 40
1
 40
1
 40
1
 40
1
 10
152.133285
 20
251.245614
 30
0.0
 10
151.572773
 20
251.477785
 30
0.0
 10
151.207310
 20
252.024740
 30
0.0
 10
151.207310
 20
252.631433
 30
0.0
  0
SPLINE
  5
19f
100
AcDbEntity
  8
Layer_1
 62
5
100
AcDbSpline
 70
8
 71
3
 72
8
 73
4
 74
0
 40
0
 40
0
 40
0
 40
0
 40
1
 40
1
 40
1
 40
1
 10
151.207310
 20
252.631433
 30
0.0
 10
151.207310
 20
253.029258
 30
0.0
 10
151.365345
 20
253.410789
 30
0.0
 10
151.646650
 20
253.692093
 30
0.0
  0
SPLINE
  5
1a0
100
AcDbEntity
  8
Layer_1
 62
5
100
AcDbSpline
 70
8
 71
3
 72
8
 73
4
 74
0
 40
0
 40
0
 40
0
 40
0
 40
1
 40
1
 40
1
 40
1
 10
151.646650
 20
253.692093
 30
0.0
 10
151.927954
 20
253.973398
 30
0.0
 10
152.309485
 20
254.131433
 30
0.0
 10
152.707310
 20
254.131433
 30
0.0
  0
LWPOLYLINE
  5
1a1
100
AcDbEntity
  8
Layer_1
 62
5
100
AcDbPolyline
 90
1
 70
1
 10
25.207314
 20
254.131433
 30
0.0
  0
SPLINE
  5
1a2
100
AcDbEntity
  8
Layer_1
 62
5
100
AcDbSpline
 70
8
 71
3
 72
8
 73
4
 74
0
 40
0
 40
0
 40
0
 40
0
 40
1
 40
1
 40
1
 40
1
 10
21.966891
 20
227.912602
 30
0.0
 10
20.326564
 20
227.912602
 30
0.0
 10
19.006349
 20
226.591875
 30
0.0
 10
19.006349
 20
224.951543
 30
0.0
  0
LWPOLYLINE
  5
1a3
100
AcDbEntity
  8
Layer_1
 62
5
100
AcDbPolyline
 90
1
 70
1
 10
152.707310
 20
254.131433
 30
0.0
  0
SPLINE
  5
1a4
100
AcDbEntity
  8
Layer_1
 62
5
100
AcDbSpline
 70
8
 71
3
 72
8
 73
4
 74
0
 40
0
 40
0
 40
0
 40
0
 40
1
 40
1
 40
1
 40
1
 10
19.006349
 20
218.373133
 30
0.0
 10
19.006349
 20
216.732811
 30
0.0
 10
20.326564
 20
215.412590
 30
0.0
 10
21.966891
 20
215.412590
 30
0.0
  0
LWPOLYLINE
  5
1a5
100
AcDbEntity
  8
Layer_1
 62
5
100
AcDbPolyline
 90
2
 70
0
 10
19.006349
 20
224.951543
 30
0.0
 10
19.006349
 20
218.373133
 30
0.0
  0
SPLINE
  5
1a6
100
AcDbEntity
  8
Layer_1
 62
5
100
AcDbSpline
 70
8
 71
3
 72
8
 73
4
 74
0
 40
0
 40
0
 40
0
 40
0
 40
1
 40
1
 40
1
 40
1
 10
23.755929
 20
215.412590
 30
0.0
 10
23.756122
 20
216.240946
 30
0.0
 10
24.427740
 20
216.912332
 30
0.0
 10
25.256096
 20
216.912240
 30
0.0
  0
SPLINE
  5
1a7
100
AcDbEntity
  8
Layer_1
 62
5
100
AcDbSpline
 70
8
 71
3
 72
8
 73
4
 74
0
 40
0
 40
0
 40
0
 40
0
 40
1
 40
1
 40
1
 40
1
 10
25.256096
 20
216.912240
 30
0.0
 10
26.084250
 20
216.912047
 30
0.0
 10
26.755553
 20
216.240744
 30
0.0
 10
26.755746
 20
215.412590
 30
0.0
  0
LWPOLYLINE
  5
1a8
100
AcDbEntity
  8
Layer_1
 62
5
100
AcDbPolyline
 90
2
 70
0
 10
21.966891
 20
215.412590
 30
0.0
 10
23.755929
 20
215.412590
 30
0.0
  0
SPLINE
  5
1a9
100
AcDbEntity
  8
Layer_1
 62
5
100
AcDbSpline
 70
8
 71
3
 72
8
 73
4
 74
0
 40
0
 40
0
 40
0
 40
0
 40
1
 40
1
 40
1
 40
1
 10
151.256154
 20
215.412590
 30
0.0
 10
151.256347
 20
216.240744
 30
0.0
 10
151.927650
 20
216.912047
 30
0.0
 10
152.755804
 20
216.912240
 30
0.0
  0
SPLINE
  5
1aa
100
AcDbEntity
  8
Layer_1
 62
5
100
AcDbSpline
 70
8
 71
3
 72
8
 73
4
 74
0
 40
0
 40
0
 40
0
 40
0
 40
1
 40
1
 40
1
 40
1
 10
152.755804
 20
216.912240
 30
0.0
 10
153.584161
 20
216.912334
 30
0.0
 10
154.255781
 20
216.240947
 30
0.0
 10
154.255974
 20
215.412590
 30
0.0
  0
LWPOLYLINE
  5
1ab
100
AcDbEntity
  8
Layer_1
 62
5
100
AcDbPolyline
 90
6
 70
0
 10
26.755746
 20
215.412590
 30
0.0
 10
31.506361
 20
215.412590
 30
0.0
 10
36.255942
 20
220.162171
 30
0.0
 10
141.755964
 20
220.162171
 30
0.0
 10
146.506064
 20
215.412590
 30
0.0
 10
151.256154
 20
215.412590
 30
0.0
  0
SPLINE
  5
1ac
100
AcDbEntity
  8
Layer_1
 62
5
100
AcDbSpline
 70
8
 71
3
 72
8
 73
4
 74
0
 40
0
 40
0
 40
0
 40
0
 40
1
 40
1
 40
1
 40
1
 10
156.045534
 20
215.412590
 30
0.0
 10
157.685834
 20
215.412590
 30
0.0
 10
159.006074
 20
216.732811
 30
0.0
 10
159.006074
 20
218.373133
 30
0.0
  0
LWPOLYLINE
  5
1ad
100
AcDbEntity
  8
Layer_1
 62
5
100
AcDbPolyline
 90
2
 70
0
 10
154.255974
 20
215.412590
 30
0.0
 10
156.045534
 20
215.412590
 30
0.0
  0
SPLINE
  5
1ae
100
AcDbEntity
  8
Layer_1
 62
5
100
AcDbSpline
 70
8
 71
3
 72
8
 73
4
 74
0
 40
0
 40
0
 40
0
 40
0
 40
1
 40
1
 40
1
 40
1
 10
159.006074
 20
224.951543
 30
0.0
 10
159.006074
 20
226.591875
 30
0.0
 10
157.685834
 20
227.912602
 30
0.0
 10
156.045534
 20
227.912602
 30
0.0
  0
LWPOLYLINE
  5
1af
100
AcDbEntity
  8
Layer_1
 62
5
100
AcDbPolyline
 90
2
 70
0
 10
159.006074
 20
218.373133
 30
0.0
 10
159.006074
 20
224.951543
 30
0.0
  0
SPLINE
  5
1b0
100
AcDbEntity
  8
Layer_1
 62
5
100
AcDbSpline
 70
8
 71
3
 72
8
 73
4
 74
0
 40
0
 40
0
 40
0
 40
0
 40
1
 40
1
 40
1
 40
1
 10
154.255974
 20
227.912602
 30
0.0
 10
154.256018
 20
227.514719
 30
0.0
 10
154.097979
 20
227.133120
 30
0.0
 10
153.816633
 20
226.851774
 30
0.0
  0
SPLINE
  5
1b1
100
AcDbEntity
  8
Layer_1
 62
5
100
AcDbSpline
 70
8
 71
3
 72
8
 73
4
 74
0
 40
0
 40
0
 40
0
 40
0
 40
1
 40
1
 40
1
 40
1
 10
153.816633
 20
226.851774
 30
0.0
 10
153.535287
 20
226.570429
 30
0.0
 10
153.153687
 20
226.412391
 30
0.0
 10
152.755804
 20
226.412436
 30
0.0
  0
SPLINE
  5
1b2
100
AcDbEntity
  8
Layer_1
 62
5
100
AcDbSpline
 70
8
 71
3
 72
8
 73
4
 74
0
 40
0
 40
0
 40
0
 40
0
 40
1
 40
1
 40
1
 40
1
 10
152.755804
 20
226.412436
 30
0.0
 10
151.927449
 20
226.412629
 30
0.0
 10
151.256062
 20
227.084247
 30
0.0
 10
151.256154
 20
227.912602
 30
0.0
  0
LWPOLYLINE
  5
1b3
100
AcDbEntity
  8
Layer_1
 62
5
100
AcDbPolyline
 90
2
 70
0
 10
156.045534
 20
227.912602
 30
0.0
 10
154.255974
 20
227.912602
 30
0.0
  0
SPLINE
  5
1b4
100
AcDbEntity
  8
Layer_1
 62
5
100
AcDbSpline
 70
8
 71
3
 72
8
 73
4
 74
0
 40
0
 40
0
 40
0
 40
0
 40
1
 40
1
 40
1
 40
1
 10
26.755746
 20
227.912602
 30
0.0
 10
26.755553
 20
227.084448
 30
0.0
 10
26.084250
 20
226.413145
 30
0.0
 10
25.256096
 20
226.412952
 30
0.0
  0
SPLINE
  5
1b5
100
AcDbEntity
  8
Layer_1
 62
5
100
AcDbSpline
 70
8
 71
3
 72
8
 73
4
 74
0
 40
0
 40
0
 40
0
 40
0
 40
1
 40
1
 40
1
 40
1
 10
25.256096
 20
226.412952
 30
0.0
 10
24.427740
 20
226.412860
 30
0.0
 10
23.756122
 20
227.084246
 30
0.0
 10
23.755929
 20
227.912602
 30
0.0
  0
LWPOLYLINE
  5
1b6
100
AcDbEntity
  8
Layer_1
 62
5
100
AcDbPolyline
 90
2
 70
0
 10
151.256154
 20
227.912602
 30
0.0
 10
26.755746
 20
227.912602
 30
0.0
  0
SPLINE
  5
1b7
100
AcDbEntity
  8
Layer_1
 62
5
100
AcDbSpline
 70
8
 71
3
 72
8
 73
4
 74
0
 40
0
 40
0
 40
0
 40
0
 40
1
 40
1
 40
1
 40
1
 10
25.255968
 20
223.162533
 30
0.0
 10
24.649275
 20
223.162533
 30
0.0
 10
24.102320
 20
222.797070
 30
0.0
 10
23.870149
 20
222.236558
 30
0.0
  0
SPLINE
  5
1b8
100
AcDbEntity
  8
Layer_1
 62
5
100
AcDbSpline
 70
8
 71
3
 72
8
 73
4
 74
0
 40
0
 40
0
 40
0
 40
0
 40
1
 40
1
 40
1
 40
1
 10
23.870149
 20
222.236558
 30
0.0
 10
23.637977
 20
221.676047
 30
0.0
 10
23.766311
 20
221.030870
 30
0.0
 10
24.195308
 20
220.601873
 30
0.0
  0
SPLINE
  5
1b9
100
AcDbEntity
  8
Layer_1
 62
5
100
AcDbSpline
 70
8
 71
3
 72
8
 73
4
 74
0
 40
0
 40
0
 40
0
 40
0
 40
1
 40
1
 40
1
 40
1
 10
24.195308
 20
220.601873
 30
0.0
 10
24.624305
 20
220.172876
 30
0.0
 10
25.269482
 20
220.044542
 30
0.0
 10
25.829993
 20
220.276714
 30
0.0
  0
SPLINE
  5
1ba
100
AcDbEntity
  8
Layer_1
 62
5
100
AcDbSpline
 70
8
 71
3
 72
8
 73
4
 74
0
 40
0
 40
0
 40
0
 40
0
 40
1
 40
1
 40
1
 40
1
 10
25.829993
 20
220.276714
 30
0.0
 10
26.390505
 20
220.508885
 30
0.0
 10
26.755968
 20
221.055840
 30
0.0
 10
26.755968
 20
221.662533
 30
0.0
  0
SPLINE
  5
1bb
100
AcDbEntity
  8
Layer_1
 62
5
100
AcDbSpline
 70
8
 71
3
 72
8
 73
4
 74
0
 40
0
 40
0
 40
0
 40
0
 40
1
 40
1
 40
1
 40
1
 10
26.755968
 20
221.662533
 30
0.0
 10
26.755968
 20
222.060358
 30
0.0
 10
26.597933
 20
222.441889
 30
0.0
 10
26.316628
 20
222.723193
 30
0.0
  0
SPLINE
  5
1bc
100
AcDbEntity
  8
Layer_1
 62
5
100
AcDbSpline
 70
8
 71
3
 72
8
 73
4
 74
0
 40
0
 40
0
 40
0
 40
0
 40
1
 40
1
 40
1
 40
1
 10
26.316628
 20
222.723193
 30
0.0
 10
26.035324
 20
223.004498
 30
0.0
 10
25.653793
 20
223.162533
 30
0.0
 10
25.255968
 20
223.162533
 30
0.0
  0
LWPOLYLINE
  5
1bd
100
AcDbEntity
  8
Layer_1
 62
5
100
AcDbPolyline
 90
2
 70
0
 10
23.755929
 20
227.912602
 30
0.0
 10
21.966891
 20
227.912602
 30
0.0
  0
SPLINE
  5
1be
100
AcDbEntity
  8
Layer_1
 62
5
100
AcDbSpline
 70
8
 71
3
 72
8
 73
4
 74
0
 40
0
 40
0
 40
0
 40
0
 40
1
 40
1
 40
1
 40
1
 10
152.755964
 20
223.162533
 30
0.0
 10
153.362657
 20
223.162533
 30
0.0
 10
153.909612
 20
222.797070
 30
0.0
 10
154.141783
 20
222.236558
 30
0.0
  0
SPLINE
  5
1bf
100
AcDbEntity
  8
Layer_1
 62
5
100
AcDbSpline
 70
8
 71
3
 72
8
 73
4
 74
0
 40
0
 40
0
 40
0
 40
0
 40
1
 40
1
 40
1
 40
1
 10
154.141783
 20
222.236558
 30
0.0
 10
154.373955
 20
221.676047
 30
0.0
 10
154.245621
 20
221.030870
 30
0.0
 10
153.816624
 20
220.601873
 30
0.0
  0
SPLINE
  5
1c0
100
AcDbEntity
  8
Layer_1
 62
5
100
AcDbSpline
 70
8
 71
3
 72
8
 73
4
 74
0
 40
0
 40
0
 40
0
 40
0
 40
1
 40
1
 40
1
 40
1
 10
153.816624
 20
220.601873
 30
0.0
 10
153.387627
 20
220.172876
 30
0.0
 10
152.742450
 20
220.044542
 30
0.0
 10
152.181939
 20
220.276714
 30
0.0
  0
SPLINE
  5
1c1
100
AcDbEntity
  8
Layer_1
 62
5
100
AcDbSpline
 70
8
 71
3
 72
8
 73
4
 74
0
 40
0
 40
0
 40
0
 40
0
 40
1
 40
1
 40
1
 40
1
 10
152.181939
 20
220.276714
 30
0.0
 10
151.621427
 20
220.508885
 30
0.0
 10
151.255964
 20
221.055840
 30
0.0
 10
151.255964
 20
221.662533
 30
0.0
  0
SPLINE
  5
1c2
100
AcDbEntity
  8
Layer_1
 62
5
100
AcDbSpline
 70
8
 71
3
 72
8
 73
4
 74
0
 40
0
 40
0
 40
0
 40
0
 40
1
 40
1
 40
1
 40
1
 10
151.255964
 20
221.662533
 30
0.0
 10
151.255964
 20
222.060358
 30
0.0
 10
151.413999
 20
222.441889
 30
0.0
 10
151.695304
 20
222.723193
 30
0.0
  0
SPLINE
  5
1c3
100
AcDbEntity
  8
Layer_1
 62
5
100
AcDbSpline
 70
8
 71
3
 72
8
 73
4
 74
0
 40
0
 40
0
 40
0
 40
0
 40
1
 40
1
 40
1
 40
1
 10
151.695304
 20
222.723193
 30
0.0
 10
151.976608
 20
223.004498
 30
0.0
 10
152.358139
 20
223.162533
 30
0.0
 10
152.755964
 20
223.162533
 30
0.0
  0
LWPOLYLINE
  5
1c4
100
AcDbEntity
  8
Layer_1
 62
5
100
AcDbPolyline
 90
1
 70
1
 10
25.255968
 20
223.162533
 30
0.0
  0
SPLINE
  5
1c5
100
AcDbEntity
  8
Layer_1
 62
6
100
AcDbSpline
 70
8
 71
3
 72
8
 73
4
 74
0
 40
0
 40
0
 40
0
 40
0
 40
1
 40
1
 40
1
 40
1
 10
22.176457
 20
164.222290
 30
0.0
 10
20.514471
 20
164.222290
 30
0.0
 10
19.176641
 20
162.884480
 30
0.0
 10
19.176641
 20
161.222480
 30
0.0
  0
LWPOLYLINE
  5
1c6
100
AcDbEntity
  8
Layer_1
 62
5
100
AcDbPolyline
 90
1
 70
1
 10
152.755964
 20
223.162533
 30
0.0
  0
SPLINE
  5
1c7
100
AcDbEntity
  8
Layer_1
 62
6
100
AcDbSpline
 70
8
 71
3
 72
8
 73
4
 74
0
 40
0
 40
0
 40
0
 40
0
 40
1
 40
1
 40
1
 40
1
 10
19.176641
 20
130.207280
 30
0.0
 10
19.176641
 20
128.566950
 30
0.0
 10
20.496867
 20
127.246730
 30
0.0
 10
22.137183
 20
127.246730
 30
0.0
  0
LWPOLYLINE
  5
1c8
100
AcDbEntity
  8
Layer_1
 62
6
100
AcDbPolyline
 90
9
 70
0
 10
19.176641
 20
161.222480
 30
0.0
 10
19.176641
 20
149.285740
 30
0.0
 10
19.176641
 20
148.722470
 30
0.0
 10
19.176641
 20
148.609290
 30
0.0
 10
19.176641
 20
143.035470
 30
0.0
 10
19.176641
 20
142.707330
 30
0.0
 10
19.176641
 20
136.496340
 30
0.0
 10
19.176641
 20
136.457540
 30
0.0
 10
19.176641
 20
130.207280
 30
0.0
  0
SPLINE
  5
1c9
100
AcDbEntity
  8
Layer_1
 62
6
100
AcDbSpline
 70
8
 71
3
 72
8
 73
4
 74
0
 40
0
 40
0
 40
0
 40
0
 40
1
 40
1
 40
1
 40
1
 10
156.215820
 20
127.246730
 30
0.0
 10
157.856160
 20
127.246730
 30
0.0
 10
159.176360
 20
128.566950
 30
0.0
 10
159.176360
 20
130.207280
 30
0.0
  0
LWPOLYLINE
  5
1ca
100
AcDbEntity
  8
Layer_1
 62
6
100
AcDbPolyline
 90
6
 70
0
 10
22.137183
 20
127.246730
 30
0.0
 10
31.676653
 20
127.246730
 30
0.0
 10
36.426234
 20
131.996310
 30
0.0
 10
141.926250
 20
131.996310
 30
0.0
 10
146.676350
 20
127.246730
 30
0.0
 10
156.215820
 20
127.246730
 30
0.0
  0
SPLINE
  5
1cb
100
AcDbEntity
  8
Layer_1
 62
6
100
AcDbSpline
 70
8
 71
3
 72
8
 73
4
 74
0
 40
0
 40
0
 40
0
 40
0
 40
1
 40
1
 40
1
 40
1
 10
159.176360
 20
161.222480
 30
0.0
 10
159.176360
 20
162.884480
 30
0.0
 10
157.838540
 20
164.222290
 30
0.0
 10
156.176540
 20
164.222290
 30
0.0
  0
LWPOLYLINE
  5
1cc
100
AcDbEntity
  8
Layer_1
 62
6
100
AcDbPolyline
 90
7
 70
0
 10
159.176360
 20
130.207280
 30
0.0
 10
159.176360
 20
136.457540
 30
0.0
 10
159.176360
 20
136.496340
 30
0.0
 10
159.176360
 20
142.707330
 30
0.0
 10
159.176360
 20
143.035470
 30
0.0
 10
159.176360
 20
149.285740
 30
0.0
 10
159.176360
 20
161.222480
 30
0.0
  0
SPLINE
  5
1cd
100
AcDbEntity
  8
Layer_1
 62
6
100
AcDbSpline
 70
8
 71
3
 72
8
 73
4
 74
0
 40
0
 40
0
 40
0
 40
0
 40
1
 40
1
 40
1
 40
1
 10
25.426388
 20
147.496700
 30
0.0
 10
25.824271
 20
147.496744
 30
0.0
 10
26.205871
 20
147.338705
 30
0.0
 10
26.487216
 20
147.057359
 30
0.0
  0
SPLINE
  5
1ce
100
AcDbEntity
  8
Layer_1
 62
6
100
AcDbSpline
 70
8
 71
3
 72
8
 73
4
 74
0
 40
0
 40
0
 40
0
 40
0
 40
1
 40
1
 40
1
 40
1
 10
26.487216
 20
147.057359
 30
0.0
 10
26.768562
 20
146.776013
 30
0.0
 10
26.926600
 20
146.394413
 30
0.0
 10
26.926555
 20
145.996530
 30
0.0
  0
SPLINE
  5
1cf
100
AcDbEntity
  8
Layer_1
 62
6
100
AcDbSpline
 70
8
 71
3
 72
8
 73
4
 74
0
 40
0
 40
0
 40
0
 40
0
 40
1
 40
1
 40
1
 40
1
 10
26.926555
 20
145.996530
 30
0.0
 10
26.926597
 20
145.598649
 30
0.0
 10
26.768558
 20
145.217051
 30
0.0
 10
26.487213
 20
144.935707
 30
0.0
  0
SPLINE
  5
1d0
100
AcDbEntity
  8
Layer_1
 62
6
100
AcDbSpline
 70
8
 71
3
 72
8
 73
4
 74
0
 40
0
 40
0
 40
0
 40
0
 40
1
 40
1
 40
1
 40
1
 10
26.487213
 20
144.935707
 30
0.0
 10
26.205867
 20
144.654363
 30
0.0
 10
25.824269
 20
144.496326
 30
0.0
 10
25.426388
 20
144.496370
 30
0.0
  0
SPLINE
  5
1d1
100
AcDbEntity
  8
Layer_1
 62
6
100
AcDbSpline
 70
8
 71
3
 72
8
 73
4
 74
0
 40
0
 40
0
 40
0
 40
0
 40
1
 40
1
 40
1
 40
1
 10
25.426388
 20
144.496370
 30
0.0
 10
24.598035
 20
144.496563
 30
0.0
 10
23.926650
 20
145.168177
 30
0.0
 10
23.926738
 20
145.996530
 30
0.0
  0
SPLINE
  5
1d2
100
AcDbEntity
  8
Layer_1
 62
6
100
AcDbSpline
 70
8
 71
3
 72
8
 73
4
 74
0
 40
0
 40
0
 40
0
 40
0
 40
1
 40
1
 40
1
 40
1
 10
23.926738
 20
145.996530
 30
0.0
 10
23.926644
 20
146.824887
 30
0.0
 10
24.598031
 20
147.496507
 30
0.0
 10
25.426388
 20
147.496700
 30
0.0
  0
LWPOLYLINE
  5
1d3
100
AcDbEntity
  8
Layer_1
 62
6
100
AcDbPolyline
 90
2
 70
0
 10
156.176540
 20
164.222290
 30
0.0
 10
22.176457
 20
164.222290
 30
0.0
  0
SPLINE
  5
1d4
100
AcDbEntity
  8
Layer_1
 62
6
100
AcDbSpline
 70
8
 71
3
 72
8
 73
4
 74
0
 40
0
 40
0
 40
0
 40
0
 40
1
 40
1
 40
1
 40
1
 10
152.926610
 20
147.496700
 30
0.0
 10
153.324494
 20
147.496745
 30
0.0
 10
153.706094
 20
147.338706
 30
0.0
 10
153.987440
 20
147.057360
 30
0.0
  0
SPLINE
  5
1d5
100
AcDbEntity
  8
Layer_1
 62
6
100
AcDbSpline
 70
8
 71
3
 72
8
 73
4
 74
0
 40
0
 40
0
 40
0
 40
0
 40
1
 40
1
 40
1
 40
1
 10
153.987440
 20
147.057360
 30
0.0
 10
154.268786
 20
146.776014
 30
0.0
 10
154.426825
 20
146.394414
 30
0.0
 10
154.426780
 20
145.996530
 30
0.0
  0
SPLINE
  5
1d6
100
AcDbEntity
  8
Layer_1
 62
6
100
AcDbSpline
 70
8
 71
3
 72
8
 73
4
 74
0
 40
0
 40
0
 40
0
 40
0
 40
1
 40
1
 40
1
 40
1
 10
154.426780
 20
145.996530
 30
0.0
 10
154.426822
 20
145.598648
 30
0.0
 10
154.268783
 20
145.217050
 30
0.0
 10
153.987437
 20
144.935706
 30
0.0
  0
SPLINE
  5
1d7
100
AcDbEntity
  8
Layer_1
 62
6
100
AcDbSpline
 70
8
 71
3
 72
8
 73
4
 74
0
 40
0
 40
0
 40
0
 40
0
 40
1
 40
1
 40
1
 40
1
 10
153.987437
 20
144.935706
 30
0.0
 10
153.706091
 20
144.654362
 30
0.0
 10
153.324492
 20
144.496325
 30
0.0
 10
152.926610
 20
144.496370
 30
0.0
  0
SPLINE
  5
1d8
100
AcDbEntity
  8
Layer_1
 62
6
100
AcDbSpline
 70
8
 71
3
 72
8
 73
4
 74
0
 40
0
 40
0
 40
0
 40
0
 40
1
 40
1
 40
1
 40
1
 10
152.926610
 20
144.496370
 30
0.0
 10
152.528730
 20
144.496328
 30
0.0
 10
152.147134
 20
144.654366
 30
0.0
 10
151.865790
 20
144.935710
 30
0.0
  0
SPLINE
  5
1d9
100
AcDbEntity
  8
Layer_1
 62
6
100
AcDbSpline
 70
8
 71
3
 72
8
 73
4
 74
0
 40
0
 40
0
 40
0
 40
0
 40
1
 40
1
 40
1
 40
1
 10
151.865790
 20
144.935710
 30
0.0
 10
151.584446
 20
145.217054
 30
0.0
 10
151.426408
 20
145.598650
 30
0.0
 10
151.426450
 20
145.996530
 30
0.0
  0
SPLINE
  5
1da
100
AcDbEntity
  8
Layer_1
 62
6
100
AcDbSpline
 70
8
 71
3
 72
8
 73
4
 74
0
 40
0
 40
0
 40
0
 40
0
 40
1
 40
1
 40
1
 40
1
 10
151.426450
 20
145.996530
 30
0.0
 10
151.426405
 20
146.394412
 30
0.0
 10
151.584442
 20
146.776011
 30
0.0
 10
151.865786
 20
147.057357
 30
0.0
  0
SPLINE
  5
1db
100
AcDbEntity
  8
Layer_1
 62
6
100
AcDbSpline
 70
8
 71
3
 72
8
 73
4
 74
0
 40
0
 40
0
 40
0
 40
0
 40
1
 40
1
 40
1
 40
1
 10
151.865786
 20
147.057357
 30
0.0
 10
152.147130
 20
147.338703
 30
0.0
 10
152.528728
 20
147.496742
 30
0.0
 10
152.926610
 20
147.496700
 30
0.0
  0
LWPOLYLINE
  5
1dc
100
AcDbEntity
  8
Layer_1
 62
6
100
AcDbPolyline
 90
1
 70
1
 10
25.426388
 20
147.496700
 30
0.0
  0
SPLINE
  5
1dd
100
AcDbEntity
  8
Layer_1
 62
6
100
AcDbSpline
 70
8
 71
3
 72
8
 73
4
 74
0
 40
0
 40
0
 40
0
 40
0
 40
1
 40
1
 40
1
 40
1
 10
25.426388
 20
141.246440
 30
0.0
 10
25.824271
 20
141.246484
 30
0.0
 10
26.205871
 20
141.088445
 30
0.0
 10
26.487216
 20
140.807099
 30
0.0
  0
SPLINE
  5
1de
100
AcDbEntity
  8
Layer_1
 62
6
100
AcDbSpline
 70
8
 71
3
 72
8
 73
4
 74
0
 40
0
 40
0
 40
0
 40
0
 40
1
 40
1
 40
1
 40
1
 10
26.487216
 20
140.807099
 30
0.0
 10
26.768562
 20
140.525753
 30
0.0
 10
26.926600
 20
140.144153
 30
0.0
 10
26.926555
 20
139.746270
 30
0.0
  0
SPLINE
  5
1df
100
AcDbEntity
  8
Layer_1
 62
6
100
AcDbSpline
 70
8
 71
3
 72
8
 73
4
 74
0
 40
0
 40
0
 40
0
 40
0
 40
1
 40
1
 40
1
 40
1
 10
26.926555
 20
139.746270
 30
0.0
 10
26.926362
 20
138.917914
 30
0.0
 10
26.254744
 20
138.246528
 30
0.0
 10
25.426388
 20
138.246620
 30
0.0
  0
SPLINE
  5
1e0
100
AcDbEntity
  8
Layer_1
 62
6
100
AcDbSpline
 70
8
 71
3
 72
8
 73
4
 74
0
 40
0
 40
0
 40
0
 40
0
 40
1
 40
1
 40
1
 40
1
 10
25.426388
 20
138.246620
 30
0.0
 10
24.598234
 20
138.246813
 30
0.0
 10
23.926931
 20
138.918116
 30
0.0
 10
23.926738
 20
139.746270
 30
0.0
  0
SPLINE
  5
1e1
100
AcDbEntity
  8
Layer_1
 62
6
100
AcDbSpline
 70
8
 71
3
 72
8
 73
4
 74
0
 40
0
 40
0
 40
0
 40
0
 40
1
 40
1
 40
1
 40
1
 10
23.926738
 20
139.746270
 30
0.0
 10
23.926644
 20
140.574627
 30
0.0
 10
24.598031
 20
141.246247
 30
0.0
 10
25.426388
 20
141.246440
 30
0.0
  0
LWPOLYLINE
  5
1e2
100
AcDbEntity
  8
Layer_1
 62
6
100
AcDbPolyline
 90
1
 70
1
 10
152.926610
 20
147.496700
 30
0.0
  0
SPLINE
  5
1e3
100
AcDbEntity
  8
Layer_1
 62
6
100
AcDbSpline
 70
8
 71
3
 72
8
 73
4
 74
0
 40
0
 40
0
 40
0
 40
0
 40
1
 40
1
 40
1
 40
1
 10
152.926610
 20
141.246440
 30
0.0
 10
153.324494
 20
141.246485
 30
0.0
 10
153.706094
 20
141.088446
 30
0.0
 10
153.987440
 20
140.807100
 30
0.0
  0
SPLINE
  5
1e4
100
AcDbEntity
  8
Layer_1
 62
6
100
AcDbSpline
 70
8
 71
3
 72
8
 73
4
 74
0
 40
0
 40
0
 40
0
 40
0
 40
1
 40
1
 40
1
 40
1
 10
153.987440
 20
140.807100
 30
0.0
 10
154.268786
 20
140.525754
 30
0.0
 10
154.426825
 20
140.144154
 30
0.0
 10
154.426780
 20
139.746270
 30
0.0
  0
SPLINE
  5
1e5
100
AcDbEntity
  8
Layer_1
 62
6
100
AcDbSpline
 70
8
 71
3
 72
8
 73
4
 74
0
 40
0
 40
0
 40
0
 40
0
 40
1
 40
1
 40
1
 40
1
 10
154.426780
 20
139.746270
 30
0.0
 10
154.426587
 20
138.917913
 30
0.0
 10
153.754967
 20
138.246526
 30
0.0
 10
152.926610
 20
138.246620
 30
0.0
  0
SPLINE
  5
1e6
100
AcDbEntity
  8
Layer_1
 62
6
100
AcDbSpline
 70
8
 71
3
 72
8
 73
4
 74
0
 40
0
 40
0
 40
0
 40
0
 40
1
 40
1
 40
1
 40
1
 10
152.926610
 20
138.246620
 30
0.0
 10
152.098257
 20
138.246532
 30
0.0
 10
151.426643
 20
138.917917
 30
0.0
 10
151.426450
 20
139.746270
 30
0.0
  0
SPLINE
  5
1e7
100
AcDbEntity
  8
Layer_1
 62
6
100
AcDbSpline
 70
8
 71
3
 72
8
 73
4
 74
0
 40
0
 40
0
 40
0
 40
0
 40
1
 40
1
 40
1
 40
1
 10
151.426450
 20
139.746270
 30
0.0
 10
151.426405
 20
140.144152
 30
0.0
 10
151.584442
 20
140.525751
 30
0.0
 10
151.865786
 20
140.807097
 30
0.0
  0
SPLINE
  5
1e8
100
AcDbEntity
  8
Layer_1
 62
6
100
AcDbSpline
 70
8
 71
3
 72
8
 73
4
 74
0
 40
0
 40
0
 40
0
 40
0
 40
1
 40
1
 40
1
 40
1
 10
151.865786
 20
140.807097
 30
0.0
 10
152.147130
 20
141.088443
 30
0.0
 10
152.528728
 20
141.246482
 30
0.0
 10
152.926610
 20
141.246440
 30
0.0
  0
LWPOLYLINE
  5
1e9
100
AcDbEntity
  8
Layer_1
 62
6
100
AcDbPolyline
 90
1
 70
1
 10
25.426388
 20
141.246440
 30
0.0
  0
SPLINE
  5
1ea
100
AcDbEntity
  8
Layer_1
 62
6
100
AcDbSpline
 70
8
 71
3
 72
8
 73
4
 74
0
 40
0
 40
0
 40
0
 40
0
 40
1
 40
1
 40
1
 40
1
 10
25.426388
 20
134.996690
 30
0.0
 10
25.824271
 20
134.996734
 30
0.0
 10
26.205871
 20
134.838695
 30
0.0
 10
26.487216
 20
134.557349
 30
0.0
  0
SPLINE
  5
1eb
100
AcDbEntity
  8
Layer_1
 62
6
100
AcDbSpline
 70
8
 71
3
 72
8
 73
4
 74
0
 40
0
 40
0
 40
0
 40
0
 40
1
 40
1
 40
1
 40
1
 10
26.487216
 20
134.557349
 30
0.0
 10
26.768562
 20
134.276003
 30
0.0
 10
26.926600
 20
133.894403
 30
0.0
 10
26.926555
 20
133.496520
 30
0.0
  0
SPLINE
  5
1ec
100
AcDbEntity
  8
Layer_1
 62
6
100
AcDbSpline
 70
8
 71
3
 72
8
 73
4
 74
0
 40
0
 40
0
 40
0
 40
0
 40
1
 40
1
 40
1
 40
1
 10
26.926555
 20
133.496520
 30
0.0
 10
26.926600
 20
133.098637
 30
0.0
 10
26.768562
 20
132.717037
 30
0.0
 10
26.487216
 20
132.435691
 30
0.0
  0
SPLINE
  5
1ed
100
AcDbEntity
  8
Layer_1
 62
6
100
AcDbSpline
 70
8
 71
3
 72
8
 73
4
 74
0
 40
0
 40
0
 40
0
 40
0
 40
1
 40
1
 40
1
 40
1
 10
26.487216
 20
132.435691
 30
0.0
 10
26.205871
 20
132.154345
 30
0.0
 10
25.824271
 20
131.996306
 30
0.0
 10
25.426388
 20
131.996350
 30
0.0
  0
SPLINE
  5
1ee
100
AcDbEntity
  8
Layer_1
 62
6
100
AcDbSpline
 70
8
 71
3
 72
8
 73
4
 74
0
 40
0
 40
0
 40
0
 40
0
 40
1
 40
1
 40
1
 40
1
 10
25.426388
 20
131.996350
 30
0.0
 10
24.598031
 20
131.996543
 30
0.0
 10
23.926644
 20
132.668163
 30
0.0
 10
23.926738
 20
133.496520
 30
0.0
  0
SPLINE
  5
1ef
100
AcDbEntity
  8
Layer_1
 62
6
100
AcDbSpline
 70
8
 71
3
 72
8
 73
4
 74
0
 40
0
 40
0
 40
0
 40
0
 40
1
 40
1
 40
1
 40
1
 10
23.926738
 20
133.496520
 30
0.0
 10
23.926644
 20
134.324877
 30
0.0
 10
24.598031
 20
134.996497
 30
0.0
 10
25.426388
 20
134.996690
 30
0.0
  0
LWPOLYLINE
  5
1f0
100
AcDbEntity
  8
Layer_1
 62
6
100
AcDbPolyline
 90
1
 70
1
 10
152.926610
 20
141.246440
 30
0.0
  0
SPLINE
  5
1f1
100
AcDbEntity
  8
Layer_1
 62
6
100
AcDbSpline
 70
8
 71
3
 72
8
 73
4
 74
0
 40
0
 40
0
 40
0
 40
0
 40
1
 40
1
 40
1
 40
1
 10
152.926610
 20
134.996690
 30
0.0
 10
153.324494
 20
134.996735
 30
0.0
 10
153.706094
 20
134.838696
 30
0.0
 10
153.987440
 20
134.557350
 30
0.0
  0
SPLINE
  5
1f2
100
AcDbEntity
  8
Layer_1
 62
6
100
AcDbSpline
 70
8
 71
3
 72
8
 73
4
 74
0
 40
0
 40
0
 40
0
 40
0
 40
1
 40
1
 40
1
 40
1
 10
153.987440
 20
134.557350
 30
0.0
 10
154.268786
 20
134.276004
 30
0.0
 10
154.426825
 20
133.894404
 30
0.0
 10
154.426780
 20
133.496520
 30
0.0
  0
SPLINE
  5
1f3
100
AcDbEntity
  8
Layer_1
 62
6
100
AcDbSpline
 70
8
 71
3
 72
8
 73
4
 74
0
 40
0
 40
0
 40
0
 40
0
 40
1
 40
1
 40
1
 40
1
 10
154.426780
 20
133.496520
 30
0.0
 10
154.426825
 20
133.098636
 30
0.0
 10
154.268786
 20
132.717036
 30
0.0
 10
153.987440
 20
132.435690
 30
0.0
  0
SPLINE
  5
1f4
100
AcDbEntity
  8
Layer_1
 62
6
100
AcDbSpline
 70
8
 71
3
 72
8
 73
4
 74
0
 40
0
 40
0
 40
0
 40
0
 40
1
 40
1
 40
1
 40
1
 10
153.987440
 20
132.435690
 30
0.0
 10
153.706094
 20
132.154344
 30
0.0
 10
153.324494
 20
131.996305
 30
0.0
 10
152.926610
 20
131.996350
 30
0.0
  0
SPLINE
  5
1f5
100
AcDbEntity
  8
Layer_1
 62
6
100
AcDbSpline
 70
8
 71
3
 72
8
 73
4
 74
0
 40
0
 40
0
 40
0
 40
0
 40
1
 40
1
 40
1
 40
1
 10
152.926610
 20
131.996350
 30
0.0
 10
152.528728
 20
131.996308
 30
0.0
 10
152.147130
 20
132.154347
 30
0.0
 10
151.865786
 20
132.435693
 30
0.0
  0
SPLINE
  5
1f6
100
AcDbEntity
  8
Layer_1
 62
6
100
AcDbSpline
 70
8
 71
3
 72
8
 73
4
 74
0
 40
0
 40
0
 40
0
 40
0
 40
1
 40
1
 40
1
 40
1
 10
151.865786
 20
132.435693
 30
0.0
 10
151.584442
 20
132.717039
 30
0.0
 10
151.426405
 20
133.098638
 30
0.0
 10
151.426450
 20
133.496520
 30
0.0
  0
SPLINE
  5
1f7
100
AcDbEntity
  8
Layer_1
 62
6
100
AcDbSpline
 70
8
 71
3
 72
8
 73
4
 74
0
 40
0
 40
0
 40
0
 40
0
 40
1
 40
1
 40
1
 40
1
 10
151.426450
 20
133.496520
 30
0.0
 10
151.426405
 20
133.894402
 30
0.0
 10
151.584442
 20
134.276001
 30
0.0
 10
151.865786
 20
134.557347
 30
0.0
  0
SPLINE
  5
1f8
100
AcDbEntity
  8
Layer_1
 62
6
100
AcDbSpline
 70
8
 71
3
 72
8
 73
4
 74
0
 40
0
 40
0
 40
0
 40
0
 40
1
 40
1
 40
1
 40
1
 10
151.865786
 20
134.557347
 30
0.0
 10
152.147130
 20
134.838693
 30
0.0
 10
152.528728
 20
134.996732
 30
0.0
 10
152.926610
 20
134.996690
 30
0.0
  0
LWPOLYLINE
  5
1f9
100
AcDbEntity
  8
Layer_1
 62
6
100
AcDbPolyline
 90
1
 70
1
 10
25.426388
 20
134.996690
 30
0.0
  0
LWPOLYLINE
  5
1fa
100
AcDbEntity
  8
Layer_1
 62
6
100
AcDbPolyline
 90
1
 70
1
 10
152.926610
 20
134.996690
 30
0.0
  0
ENDSEC
  0
SECTION
  2
OBJECTS
  0
DICTIONARY
  5
C
330
0
100
AcDbDictionary
  3
ACAD_GROUP
350
D
  3
ACAD_MLINESTYLE
350
17
  0
DICTIONARY
  5
D
330
C
100
AcDbDictionary
  0
DICTIONARY
  5
1A
330
C
100
AcDbDictionary
  0
DICTIONARY
  5
17
330
C
100
AcDbDictionary
  3
STANDARD
350
18
  0
DICTIONARY
  5
19
330
C
100
AcDbDictionary
  0
ENDSEC
  0
EOF
